<?xml version="1.0" encoding="UTF-8" standalone="no"?>
<!-- Created with Inkscape (http://www.inkscape.org/) -->

<svg
   xmlns:dc="http://purl.org/dc/elements/1.1/"
   xmlns:cc="http://creativecommons.org/ns#"
   xmlns:rdf="http://www.w3.org/1999/02/22-rdf-syntax-ns#"
   xmlns:svg="http://www.w3.org/2000/svg"
   xmlns="http://www.w3.org/2000/svg"
   xmlns:sodipodi="http://sodipodi.sourceforge.net/DTD/sodipodi-0.dtd"
   xmlns:inkscape="http://www.inkscape.org/namespaces/inkscape"
   width="210mm"
   height="297mm"
   id="svg2"
   version="1.1"
   inkscape:version="0.48.4 r9939"
   sodipodi:docname="cloud1.svg">
  <defs
     id="defs4" />
  <sodipodi:namedview
     id="base"
     pagecolor="#000000"
     bordercolor="#666666"
     borderopacity="1.0"
     inkscape:pageopacity="0"
     inkscape:pageshadow="2"
     inkscape:zoom="1.979899"
     inkscape:cx="397.82379"
     inkscape:cy="632.29367"
     inkscape:document-units="px"
     inkscape:current-layer="layer2"
     showgrid="false"
     inkscape:window-width="1538"
     inkscape:window-height="878"
     inkscape:window-x="1272"
     inkscape:window-y="-8"
     inkscape:window-maximized="1" />
  <metadata
     id="metadata7">
    <rdf:RDF>
      <cc:Work
         rdf:about="">
        <dc:format>image/svg+xml</dc:format>
        <dc:type
           rdf:resource="http://purl.org/dc/dcmitype/StillImage" />
        <dc:title></dc:title>
      </cc:Work>
    </rdf:RDF>
  </metadata>
  <g
     inkscape:groupmode="layer"
     id="layer2"
     inkscape:label="Ebene 2">
    <path
       style="fill:none;stroke:#000000;stroke-width:4;stroke-linecap:butt;stroke-linejoin:miter;stroke-miterlimit:4;stroke-opacity:1;stroke-dasharray:none"
       d="m 243.57143,374.50504 c 17.14707,-36.1976 52.50017,-39.93117 82.14286,-24.28572 14.15074,-7.62625 26.43787,-5.54283 38.21428,-2.14285 27.10678,-23.24224 47.97433,-19.83125 71.42857,-1.07143 47.94352,-1.57745 61.24276,14.39064 59.28572,55 48.38416,30.39864 18.29855,73.53254 -22.5,67.14286 -20.01369,32.06048 -53.93405,38.19497 -80,5.71428 -24.66548,16.40701 -31.40466,18.19806 -60.71429,4.28572 -28.33183,39.67453 -71.05908,27.57292 -84.64286,-11.07143 -77.51362,-16.2085 -56.93259,-83.55894 -3.21428,-93.57143 z"
       inkscape:connector-curvature="0"
       id="path2999"
       sodipodi:nodetypes="cccccccccc" />
    <path
       style="opacity:1;fill:#ffffff;fill-opacity:1;stroke-width:4;stroke-miterlimit:4;stroke-dasharray:none"
       d="m 285.9999,500.99645 c -15.06269,-1.98999 -28.54774,-13.50812 -35.71716,-30.50749 -0.94762,-2.24687 -1.77637,-4.13867 -1.84168,-4.20397 -0.0653,-0.0653 -2.79131,-0.80784 -6.05778,-1.65006 -11.25059,-2.90085 -21.25899,-7.32784 -27.96782,-12.37097 -3.9849,-2.9955 -9.58267,-9.0003 -11.66253,-12.51054 -11.35364,-19.16191 -0.9756,-44.33087 23.42407,-56.80839 5.00555,-2.55974 12.67408,-5.27967 16.7817,-5.95225 2.03476,-0.33318 2.25624,-0.53872 3.73226,-3.46373 4.06758,-8.06067 11.72378,-17.04709 18.19279,-21.35367 8.0275,-5.3441 15.5234,-7.73689 25.48516,-8.13517 10.59614,-0.42365 20.26657,1.64156 30.63916,6.54327 3.87729,1.83227 4.62602,2.03103 5.80838,1.5419 0.74653,-0.30883 2.79419,-1.16442 4.55036,-1.9013 7.69735,-3.22979 17.60274,-3.60647 27.78659,-1.05665 2.87141,0.71894 5.48518,1.14938 5.80838,0.95655 0.3232,-0.19284 2.06498,-1.53111 3.87063,-2.97393 9.56014,-7.63916 18.82875,-11.90688 27.69766,-12.75333 10.7464,-1.02564 20.74968,2.40472 33.41657,11.45935 l 4.79822,3.4299 8.33376,0.0479 c 13.66331,0.0786 23.312,1.84086 31.0357,5.66837 13.13472,6.50897 18.42363,18.39906 18.45302,41.48454 l 0.009,6.87442 4.52093,3.15396 c 5.51666,3.84859 13.2401,11.7473 15.82459,16.18369 2.96649,5.0921 4.15711,9.47464 4.1154,15.1483 -0.0416,5.65222 -1.10123,8.93121 -4.60668,14.25471 -4.6012,6.98752 -13.44492,12.44885 -23.64232,14.6 -3.31481,0.69926 -13.06876,0.87478 -15.95907,0.28718 -1.78201,-0.36229 -1.85394,-0.31341 -3.74233,2.54322 -8.29379,12.54626 -19.13345,20.89708 -30.64917,23.61196 -4.68269,1.10396 -12.01985,0.98207 -16.85571,-0.28001 -8.52273,-2.2243 -15.89555,-6.98219 -23.88654,-15.41466 -2.74009,-2.89147 -5.14055,-5.25721 -5.33435,-5.25721 -0.1938,0 -2.78275,1.56084 -5.75322,3.46855 -10.48499,6.7337 -16.69877,9.52451 -23.16041,10.40207 -5.49628,0.74645 -14.62247,-1.62187 -26.16726,-6.79063 -3.06386,-1.37173 -5.82308,-2.55993 -6.13159,-2.64045 -0.30851,-0.0805 -2.03707,1.67188 -3.84123,3.89421 -4.09525,5.04446 -10.34286,11.01532 -14.18163,13.55345 -8.04238,5.31748 -18.68682,8.03174 -27.12561,6.91686 l 0,0 z"
       id="path4387"
       inkscape:connector-curvature="0"
       inkscape:export-xdpi="90"
       inkscape:export-ydpi="90" />
    <path
       style="fill:#ffffff;fill-opacity:1;stroke-width:4;stroke-miterlimit:4;stroke-dasharray:none"
       d="m 285.9999,500.99645 c -15.06269,-1.98999 -28.54774,-13.50812 -35.71716,-30.50749 -0.94762,-2.24687 -1.77637,-4.13867 -1.84168,-4.20397 -0.0653,-0.0653 -2.79131,-0.80784 -6.05778,-1.65006 -11.25059,-2.90085 -21.25899,-7.32784 -27.96782,-12.37097 -3.9849,-2.9955 -9.58267,-9.0003 -11.66253,-12.51054 -11.35364,-19.16191 -0.9756,-44.33087 23.42407,-56.80839 5.00555,-2.55974 12.67408,-5.27967 16.7817,-5.95225 2.03476,-0.33318 2.25624,-0.53872 3.73226,-3.46373 4.06758,-8.06067 11.72378,-17.04709 18.19279,-21.35367 8.0275,-5.3441 15.5234,-7.73689 25.48516,-8.13517 10.59614,-0.42365 20.26657,1.64156 30.63916,6.54327 3.87729,1.83227 4.62602,2.03103 5.80838,1.5419 0.74653,-0.30883 2.79419,-1.16442 4.55036,-1.9013 7.69735,-3.22979 17.60274,-3.60647 27.78659,-1.05665 2.87141,0.71894 5.48518,1.14938 5.80838,0.95655 0.3232,-0.19284 2.06498,-1.53111 3.87063,-2.97393 9.56014,-7.63916 18.82875,-11.90688 27.69766,-12.75333 10.7464,-1.02564 20.74968,2.40472 33.41657,11.45935 l 4.79822,3.4299 8.33376,0.0479 c 13.66331,0.0786 23.312,1.84086 31.0357,5.66837 13.13472,6.50897 18.42363,18.39906 18.45302,41.48454 l 0.009,6.87442 4.52093,3.15396 c 5.51666,3.84859 13.2401,11.7473 15.82459,16.18369 2.96649,5.0921 4.15711,9.47464 4.1154,15.1483 -0.0416,5.65222 -1.10123,8.93121 -4.60668,14.25471 -4.6012,6.98752 -13.44492,12.44885 -23.64232,14.6 -3.31481,0.69926 -13.06876,0.87478 -15.95907,0.28718 -1.78201,-0.36229 -1.85394,-0.31341 -3.74233,2.54322 -8.29379,12.54626 -19.13345,20.89708 -30.64917,23.61196 -4.68269,1.10396 -12.01985,0.98207 -16.85571,-0.28001 -8.52273,-2.2243 -15.89555,-6.98219 -23.88654,-15.41466 -2.74009,-2.89147 -5.12148,-5.25721 -5.29199,-5.25721 -0.1705,0 -2.75944,1.55997 -5.75321,3.4666 -14.61948,9.31067 -21.72323,11.62334 -30.73365,10.00554 -4.73496,-0.85015 -12.47497,-3.53986 -19.2941,-6.70483 -2.63265,-1.2219 -5.08784,-2.22163 -5.45599,-2.22163 -0.36815,0 -2.23853,1.8751 -4.1564,4.16688 -9.01529,10.77293 -17.25697,16.56916 -27.07319,19.0401 -4.37995,1.10252 -10.2168,1.54285 -13.93677,1.0514 l 0,0 z"
       id="path4389"
       inkscape:connector-curvature="0"
       inkscape:export-xdpi="90"
       inkscape:export-ydpi="90" />
  </g>
</svg>
