<?xml version="1.0" encoding="UTF-8" standalone="no"?>
<!-- Created with Inkscape (http://www.inkscape.org/) -->

<svg
   xmlns:dc="http://purl.org/dc/elements/1.1/"
   xmlns:cc="http://creativecommons.org/ns#"
   xmlns:rdf="http://www.w3.org/1999/02/22-rdf-syntax-ns#"
   xmlns:svg="http://www.w3.org/2000/svg"
   xmlns="http://www.w3.org/2000/svg"
   xmlns:sodipodi="http://sodipodi.sourceforge.net/DTD/sodipodi-0.dtd"
   xmlns:inkscape="http://www.inkscape.org/namespaces/inkscape"
   width="210mm"
   height="297mm"
   id="svg4923"
   version="1.1"
   inkscape:version="0.48.4 r9939"
   sodipodi:docname="cloud3.svg">
  <defs
     id="defs4925" />
  <sodipodi:namedview
     id="base"
     pagecolor="#d1d1d1"
     bordercolor="#666666"
     borderopacity="1.0"
     inkscape:pageopacity="0"
     inkscape:pageshadow="2"
     inkscape:zoom="2.8"
     inkscape:cx="364.45267"
     inkscape:cy="618.59706"
     inkscape:document-units="px"
     inkscape:current-layer="layer4"
     showgrid="false"
     inkscape:window-width="1538"
     inkscape:window-height="878"
     inkscape:window-x="1272"
     inkscape:window-y="-8"
     inkscape:window-maximized="1" />
  <metadata
     id="metadata4928">
    <rdf:RDF>
      <cc:Work
         rdf:about="">
        <dc:format>image/svg+xml</dc:format>
        <dc:type
           rdf:resource="http://purl.org/dc/dcmitype/StillImage" />
        <dc:title></dc:title>
      </cc:Work>
    </rdf:RDF>
  </metadata>
  <g
     inkscape:groupmode="layer"
     id="layer4"
     inkscape:label="Ebene 2">
    <path
       style="fill:none;stroke:#000000;stroke-width:4;stroke-linecap:butt;stroke-linejoin:miter;stroke-miterlimit:4;stroke-opacity:1;stroke-dasharray:none"
       d="m 297.85714,390.93361 c 18.78897,-39.3431 60.71429,-29.52381 72.85715,-4.64286 33.21429,-6.42857 38.57143,8.92857 45,24.64286 21.90476,1.90476 24.88095,10.95238 30.35714,18.57143 16.3773,2.32868 16.30504,3.20616 22.14286,13.21428 47.97619,9.28572 32.7381,37.50001 11.07143,42.85715 -6.19048,18.33333 -9.88095,28.80952 -42.14286,21.78571 -18.09524,17.7381 -18.69048,19.04762 -45.71429,9.28572 -35.23809,27.14286 -44.04762,30.35714 -78.92857,4.28571 -21.54762,9.28571 -30.95238,12.85714 -45.35714,-8.57143 -16.42857,10.95238 -40.71429,9.40476 -40.71429,-16.42857 -44.04762,-12.73809 -39.52381,-44.40476 1.78572,-55.35714 3.80952,-27.7381 12.2619,-28.69048 36.07142,-27.5 2.97619,-23.09524 20.95238,-24.76191 33.57143,-22.14286 z"
       id="path4943"
       inkscape:connector-curvature="0"
       sodipodi:nodetypes="cccccccccccccc" />
    <path
       style="fill:#ffffff;fill-opacity:1;stroke-width:4;stroke-miterlimit:4;stroke-dasharray:none"
       d="m 344.98839,536.19129 c -7.7935,-1.51333 -14.95491,-5.37986 -30.22177,-16.3171 l -2.00748,-1.43816 -4.42109,1.85122 c -13.10122,5.4858 -18.62624,6.63144 -23.99059,4.97456 -4.49156,-1.3873 -9.16083,-5.4533 -13.88939,-12.09489 -1.20621,-1.6942 -2.31899,-3.22437 -2.47284,-3.40038 -0.1569,-0.17951 -1.34663,0.31061 -2.70971,1.11628 -3.76951,2.22803 -5.75538,3.15005 -8.96034,4.16022 -8.93071,2.81485 -17.22797,1.54029 -22.17452,-3.40626 -3.24558,-3.24558 -5.39438,-8.94424 -5.40774,-14.34144 -0.003,-1.21483 -0.13378,-2.41089 -0.29059,-2.65789 -0.15682,-0.24701 -1.72132,-0.91517 -3.47667,-1.48481 -9.75725,-3.16635 -16.57619,-6.89396 -21.39028,-11.69309 -6.3104,-6.2908 -7.71544,-13.30131 -4.05152,-20.21528 1.38173,-2.6074 5.15433,-6.71121 8.47465,-9.21868 3.51774,-2.65655 10.6361,-6.07467 16.68541,-8.01206 2.91746,-0.93436 5.3277,-1.71803 5.3561,-1.74148 0.0284,-0.0235 0.47677,-2.373 0.99638,-5.22121 2.12345,-11.63958 4.74693,-16.89689 9.76702,-19.57257 3.94563,-2.10299 5.96024,-2.39382 16.19438,-2.33775 l 9.15228,0.0501 0.4566,-2.73063 c 0.65308,-3.90564 1.95624,-7.72454 3.56454,-10.4458 1.50742,-2.55059 4.95757,-5.99358 7.10268,-7.08793 4.19227,-2.13873 9.91629,-3.10574 14.92056,-2.52066 1.73309,0.20263 4.035,0.46427 5.11535,0.58143 l 1.96429,0.21303 1.19728,-2.44963 c 3.10088,-6.34442 8.56115,-13.14206 13.60591,-16.9384 13.00398,-9.78591 30.61261,-9.34061 44.30395,1.1204 4.30024,3.28564 7.50135,6.98572 9.66721,11.17411 1.4156,2.73753 1.27078,2.69638 6.22565,1.76885 2.2464,-0.42052 5.20384,-0.60707 9.82143,-0.61952 5.85494,-0.0158 6.93059,0.0753 9.44819,0.80039 5.92459,1.70628 10.28823,4.92789 13.59173,10.03459 1.48184,2.29068 4.43055,8.42722 6.19947,12.90163 l 0.78174,1.9774 3.69199,0.43851 c 5.20162,0.61782 9.14811,1.67684 13.02252,3.49454 2.77422,1.30154 3.8121,2.03976 6.10203,4.34022 1.51758,1.52456 3.89259,4.46733 5.27779,6.53949 l 2.51855,3.76756 4.10669,0.61388 c 7.91309,1.18288 11.30709,2.49073 13.3232,5.13399 0.56805,0.74475 1.84866,2.70653 2.84581,4.35951 l 1.81299,3.00541 3.72794,0.82485 c 13.59051,3.00705 22.55764,8.0103 25.91962,14.46196 0.85044,1.632 1.00335,2.3554 1.01219,4.78851 0.008,2.09199 -0.17983,3.29774 -0.69392,4.46429 -2.82564,6.41173 -8.37711,11.03235 -16.45596,13.6967 l -2.87457,0.94801 -1.0058,3.1196 c -4.13152,12.8144 -8.15575,17.80859 -15.92363,19.76165 -4.03674,1.01494 -13.40546,0.476 -21.58747,-1.24183 l -2.48032,-0.52075 -4.66253,4.49733 c -10.17966,9.81897 -13.81512,11.75147 -20.33209,10.80791 -3.29729,-0.47739 -9.27723,-2.17796 -15.81864,-4.49849 -2.45576,-0.87116 -4.65233,-1.47166 -4.88127,-1.33444 -0.22894,0.13722 -3.22875,2.36034 -6.66625,4.94026 -5.72881,4.2996 -10.91399,7.90364 -15.55216,10.80976 -3.01057,1.88633 -9.15858,4.63333 -12.15411,5.4306 -3.63413,0.96724 -8.18948,1.19592 -11.40087,0.57234 l 0,0 z"
       id="path5453"
       inkscape:connector-curvature="0" />
  </g>
</svg>
