<?xml version="1.0" encoding="UTF-8" standalone="no"?>
<!-- Created with Inkscape (http://www.inkscape.org/) -->

<svg
   xmlns:dc="http://purl.org/dc/elements/1.1/"
   xmlns:cc="http://creativecommons.org/ns#"
   xmlns:rdf="http://www.w3.org/1999/02/22-rdf-syntax-ns#"
   xmlns:svg="http://www.w3.org/2000/svg"
   xmlns="http://www.w3.org/2000/svg"
   xmlns:sodipodi="http://sodipodi.sourceforge.net/DTD/sodipodi-0.dtd"
   xmlns:inkscape="http://www.inkscape.org/namespaces/inkscape"
   width="210mm"
   height="297mm"
   id="svg4391"
   version="1.1"
   inkscape:version="0.48.4 r9939"
   sodipodi:docname="Neues Dokument 6">
  <defs
     id="defs4393" />
  <sodipodi:namedview
     id="base"
     pagecolor="#bababa"
     bordercolor="#666666"
     borderopacity="1.0"
     inkscape:pageopacity="0"
     inkscape:pageshadow="2"
     inkscape:zoom="3.959798"
     inkscape:cx="366.06314"
     inkscape:cy="595.08736"
     inkscape:document-units="px"
     inkscape:current-layer="layer3"
     showgrid="false"
     inkscape:window-width="1538"
     inkscape:window-height="878"
     inkscape:window-x="1272"
     inkscape:window-y="-8"
     inkscape:window-maximized="1" />
  <metadata
     id="metadata4396">
    <rdf:RDF>
      <cc:Work
         rdf:about="">
        <dc:format>image/svg+xml</dc:format>
        <dc:type
           rdf:resource="http://purl.org/dc/dcmitype/StillImage" />
        <dc:title></dc:title>
      </cc:Work>
    </rdf:RDF>
  </metadata>
  <g
     inkscape:groupmode="layer"
     id="layer3"
     inkscape:label="Ebene 2">
    <path
       style="fill:none;stroke:#000000;stroke-width:4;stroke-linecap:butt;stroke-linejoin:miter;stroke-miterlimit:4;stroke-opacity:1;stroke-dasharray:none"
       d="m 286.63079,424.55238 c 17.50931,-23.48605 31.48308,-19.95052 49.49747,-9.09138 22.47589,-11.53257 34.03175,2.53553 38.63833,1.76777 20.96067,-16.83588 32.07235,-9.68063 43.94164,-7.32361 21.97082,-20.79231 29.54696,-11.78511 43.18402,-0.25254 42.34223,-6.65017 49.07658,31.65145 27.7792,54.2957 0.25254,7.32361 4.54569,36.61804 -36.36549,29.54697 -8.83792,6.4352 -16.17876,13.42387 -36.61803,10.10152 -17.25678,22.47589 -36.02878,30.55711 -60.8617,-1.51523 -24.66456,25.08546 -44.78342,18.09857 -62.62945,1.76777 -73.40443,-2.69374 -62.4611,-77.36085 -6.56599,-79.29697 z"
       id="path4411"
       inkscape:connector-curvature="0"
       sodipodi:nodetypes="ccccccccccc" />
    <path
       style="fill:#ffffff;fill-opacity:1;stroke-width:4;stroke-miterlimit:4;stroke-dasharray:none"
       d="m 384.0186,520.9667 c -7.64184,-1.36789 -15.8469,-7.34079 -24.55405,-17.87421 l -3.39668,-4.10912 -1.42946,1.24712 c -0.7862,0.68591 -1.94085,1.77942 -2.56588,2.43003 -0.62503,0.6506 -2.27285,2.12298 -3.66181,3.27196 -10.45295,8.6469 -20.43955,11.89485 -30.30457,9.85597 -7.1151,-1.47053 -14.25968,-5.50872 -22.6445,-12.79888 l -1.35901,-1.18158 -3.65561,-0.2798 c -10.55718,-0.80802 -18.63812,-2.74944 -25.63234,-6.15807 -5.53406,-2.69703 -8.82381,-5.04137 -12.44423,-8.868 -3.59345,-3.79813 -6.12239,-8.14051 -7.48401,-12.85063 -0.96526,-3.339 -1.222,-5.23593 -1.21845,-9.00255 0.005,-5.14747 0.97947,-9.33198 3.32331,-14.26841 6.3662,-13.40805 20.40263,-22.28027 37.14846,-23.48099 3.81839,-0.27379 3.50557,-0.10988 5.79881,-3.03843 2.45313,-3.13274 6.25161,-7.05077 8.74512,-9.02036 5.36122,-4.23477 11.42769,-6.18434 17.05005,-5.47936 2.06304,0.25868 5.98767,1.31457 8.22635,2.21323 1.85199,0.74343 7.39444,3.5683 9.90894,5.05038 l 2.12583,1.25299 1.91478,-0.88181 c 5.75697,-2.65124 9.31197,-3.60291 14.18129,-3.79631 5.47382,-0.21741 8.52323,0.51352 15.51268,3.71832 2.36123,1.08267 4.74772,2.09339 5.3033,2.24605 1.92592,0.52917 2.30541,0.40282 5.14928,-1.71453 8.00353,-5.95886 14.21516,-8.54424 21.15262,-8.80405 4.04132,-0.15135 6.17377,0.17044 13.89872,2.09732 3.02983,0.75575 5.7021,1.37498 5.93837,1.37606 0.23627,0.001 1.5434,-0.99241 2.90473,-2.20775 10.54524,-9.41435 17.35681,-11.98389 24.20765,-9.13187 3.0393,1.26526 5.91914,3.33279 12.55058,9.01045 l 2.46436,2.10991 3.22793,-0.39446 c 20.4499,-2.49906 33.78602,6.35421 34.82287,23.11741 0.53202,8.60134 -3.38917,19.0135 -10.00713,26.57264 l -1.62534,1.85648 0.0653,5.15483 c 0.088,6.9453 -0.57447,10.81635 -2.50399,14.63151 -2.04382,4.04115 -6.25587,7.19468 -11.41433,8.5458 -4.56563,1.19586 -11.39137,1.32054 -17.99912,0.32879 l -3.03045,-0.45484 -3.6733,2.6774 c -7.37351,5.3744 -11.54512,7.24893 -18.04498,8.10859 -2.49074,0.32942 -9.21984,0.1858 -11.99557,-0.25603 -3.58872,-0.57124 -2.97045,-0.84175 -5.6324,2.46432 -7.35204,9.13106 -14.24865,14.47625 -21.07698,16.33564 -1.74178,0.47429 -6.51255,0.69292 -8.26715,0.37884 l 0,0 z"
       id="path4921"
       inkscape:connector-curvature="0" />
  </g>
</svg>
