<svg width="640" height="480" xmlns="http://www.w3.org/2000/svg">
 <g display="inline">
  <title>Ebene 2</title>
  <path id="svg_5" transform="rotate(45, 284.961, 250.467)" d="m301.28772,208.13585c-13.93802,-13.94501 -6.2265,-10.41635 -20.98248,2.70065c15.76886,16.88017 17.98981,-19.33246 -4.57928,9.47391c-15.10318,9.556 -14.5329,35.35449 -10.3382,50.23161c-0.04816,13.46283 -21.8714,47.25192 6.86493,22.17361c25.59442,-26.90872 13.15161,-16.38162 27.96805,-25.87167c14.43799,-12.39111 17.79999,-35.46413 7.19998,-51.2711c-1.72699,-2.70502 -3.81699,-5.194 -6.133,-7.43701l0,0z" stroke-miterlimit="4" stroke-linejoin="round" stroke-linecap="round" stroke-width="4" stroke="#000000" fill-rule="nonzero" fill="#a05a2c"/>
 </g>
 <g>
  <title>Layer 1</title>
  <path transform="rotate(125.64, 321.246, 266.686)" d="m308.87885,270.47516c2.74689,-8.53369 16.6178,-16.43135 20.72699,-13.45612c4.10919,2.97522 4.4267,10.05798 3.70044,11.10486c-0.72626,1.04688 -8.14038,-2.16754 -12.81866,1.69922c-4.67822,3.86676 -7.01831,7.1684 -7.01831,7.1684l-4.59045,-6.51636z" id="path3239" stroke-miterlimit="4" stroke-width="4" stroke="#000000" fill-rule="evenodd" fill="#502d16"/>
  <path transform="rotate(45, 284.836, 234.518)" d="m311.11292,203.37274c-13.93802,-13.94501 -6.2265,-10.41635 -20.98248,2.70065c15.76886,16.88017 0.31219,15.31581 -10.23608,32.10135c-9.4462,8.1418 -21.60373,19.79803 -33.67241,28.31104c4.91502,6.32199 13.48396,7.655 21.00697,8.03198c14.98801,0.668 30.82898,-2.94699 42.81702,-12.43698c14.43799,-12.39104 17.79999,-35.46405 7.19998,-51.27103c-1.72699,-2.70502 -3.81699,-5.194 -6.133,-7.43701l0,0z" id="path2383" stroke-miterlimit="4" stroke-linejoin="round" stroke-linecap="round" stroke-width="4" stroke="#000000" fill-rule="nonzero" fill="#a05a2c"/>
  <path transform="rotate(45, 310.481, 244.538)" d="m315.10132,222.3956c-13.685,-13.55 -1.7301,-14.93468 -17.6911,-4.76068c-3.612,1.98599 3.14407,-5.74994 0.34766,11.13864c-3.16031,4.4254 -8.22601,6.84497 -3.54459,9.20244c10.04999,7.20799 7.66101,9.07159 15.77203,19.8246c5.67499,7.52402 9.741,14.914 6.487,20.07901c0.168,0.052 4.89499,1.384 7.04999,-3.01599c1.36099,-2.564 2.45499,-5.116 3.302,-7.642c0.42401,-1.263 0.78601,-2.52002 1.08899,-3.76901c0.30301,-1.24802 0.547,-2.48901 0.73401,-3.72c-0.77798,-16.45801 -1.422,-18.649 -2.233,-20.76201c-0.811,-2.11301 -1.79099,-4.149 -2.91901,-6.09399c-2.25598,-3.89 -5.10599,-7.418 -8.39398,-10.481z" id="path3201" stroke-miterlimit="4" stroke-linejoin="round" stroke-linecap="round" stroke-width="4" stroke="#000000" fill-rule="nonzero" fill="#502d16"/>
  <path transform="rotate(-75, 281.965, 217.675)" id="svg_6" d="m288.78452,195.47676c-13.68503,-13.55 -2.88528,-11.51958 -17.05322,-10.10828c-1.09308,7.52275 -0.65036,-0.59219 -3.44635,16.29681c-3.16,4.425 -4.81061,8.0004 -2.32025,9.9091c10.04999,7.20801 6.43625,8.3649 14.54724,19.11789c5.67502,7.52402 9.74103,14.914 6.487,20.07901c0.16803,0.052 4.89502,1.384 7.05002,-3.01599c1.36099,-2.56403 2.45499,-5.11603 3.302,-7.64203c0.42398,-1.26297 0.78598,-2.51999 1.08899,-3.76898c0.30301,-1.24802 0.547,-2.48901 0.73401,-3.72c-0.77802,-16.45801 -1.422,-18.649 -2.233,-20.76201c-0.811,-2.11299 -1.79102,-4.14899 -2.91901,-6.09399c-2.25598,-3.89 -1.94943,-7.22853 -5.23743,-10.29153z" stroke-miterlimit="4" stroke-linejoin="round" stroke-linecap="round" stroke-width="4" stroke="#000000" fill-rule="nonzero" fill="#502d16"/>
 </g>
</svg>