<?xml version="1.0" encoding="UTF-8" standalone="no"?>
<svg
   xmlns:dc="http://purl.org/dc/elements/1.1/"
   xmlns:cc="http://creativecommons.org/ns#"
   xmlns:rdf="http://www.w3.org/1999/02/22-rdf-syntax-ns#"
   xmlns:svg="http://www.w3.org/2000/svg"
   xmlns="http://www.w3.org/2000/svg"
   xmlns:sodipodi="http://sodipodi.sourceforge.net/DTD/sodipodi-0.dtd"
   xmlns:inkscape="http://www.inkscape.org/namespaces/inkscape"
   width="800"
   height="600"
   id="svg2"
   version="1.1"
   inkscape:version="0.48.4 r9939"
   sodipodi:docname="svg_squirrel.svg">
  <metadata
     id="metadata40">
    <rdf:RDF>
      <cc:Work
         rdf:about="">
        <dc:format>image/svg+xml</dc:format>
        <dc:type
           rdf:resource="http://purl.org/dc/dcmitype/StillImage" />
      </cc:Work>
    </rdf:RDF>
  </metadata>
  <defs
     id="defs38" />
  <sodipodi:namedview
     pagecolor="#ffffff"
     bordercolor="#666666"
     borderopacity="1"
     objecttolerance="10"
     gridtolerance="10"
     guidetolerance="10"
     inkscape:pageopacity="0"
     inkscape:pageshadow="2"
     inkscape:window-width="1538"
     inkscape:window-height="878"
     id="namedview36"
     showgrid="false"
     inkscape:zoom="1.1125147"
     inkscape:cx="338.04705"
     inkscape:cy="190.3107"
     inkscape:window-x="1272"
     inkscape:window-y="-8"
     inkscape:window-maximized="1"
     inkscape:current-layer="g6" />
  <title
     id="title4">Squirrel</title>
  <g
     id="g6"
     transform="translate(11.68524,17.078427)">
    <path
       d="m 553.87,266.05499 c -1.38898,78.86902 -54.32498,113.151 -55.19901,79.84399 C 497.595,303.786 479.457,194.54499 408.25601,228.042 c -85.151,40.05901 -8.39001,284.06798 -33.04501,284.06798 -98.62,0 -178.659,-110.23199 -178.659,-246.05499 C 196.552,130.233 276.591,20 375.211,20 c 98.62,0 181.01898,111.96001 178.659,246.05499 l 0,0 z"
       id="path3584"
       stroke-miterlimit="4"
       inkscape:connector-curvature="0"
       style="fill:#784421;fill-rule:nonzero;stroke:#000000;stroke-width:4;stroke-linecap:round;stroke-linejoin:round;stroke-miterlimit:4" />
    <path
       d="m 461.30334,407.43774 a 163.15167,163.29607 0 1 1 -326.30331,0 163.15167,163.29607 0 1 1 326.30331,0 z"
       id="path2385"
       stroke-miterlimit="4"
       inkscape:connector-curvature="0"
       style="fill:#784421;fill-rule:nonzero;stroke:#000000;stroke-width:2.97744989;stroke-linecap:round;stroke-linejoin:round;stroke-miterlimit:4" />
    <path
       d="m 409.93652,108.12114 c -19.80954,0.005 -60.05051,10.54221 -67.09427,37.87045 -0.10675,0.21368 -0.3219,0.97461 -0.54474,2.1355 -12.74557,-7.78522 -27.72427,-12.31302 -43.7384,-12.31302 -16.71286,0 -32.25345,4.93506 -45.34991,13.35803 -0.26917,-1.70642 -0.59207,-2.91177 -0.72632,-3.18051 -7.04379,-27.32821 -47.28122,-37.84179 -67.09427,-37.84774 -3.15843,-9.5e-4 -5.76917,0.27029 -7.67181,0.7724 -10.63554,1.48009 -22.27278,5.72491 -21.42657,8.04208 7.80333,-1.32367 11.74844,0.19733 11.6212,1.45395 -0.23885,2.35852 -4.94231,2.98761 -3.42735,11.49518 2.85185,-4.13013 6.82388,-5.54169 9.94157,-6.20193 3.20265,20.08151 17.20168,55.15833 43.3979,56.97607 2.2467,0.15591 4.35217,0.1539 6.33264,0.11362 -6.18341,11.71829 -9.69189,25.06775 -9.69189,39.23352 0,46.47084 37.66507,100.32155 84.09482,100.32155 46.42978,0 84.14023,-53.85071 84.14023,-100.32155 0,-14.1524 -3.51938,-27.47775 -9.69189,-39.18811 1.42654,-0.0124 2.93878,-0.0511 4.49411,-0.15903 26.11649,-1.81223 40.11673,-36.68341 43.37524,-56.79434 2.97513,0.73318 6.53421,2.23605 9.14716,6.0202 1.51495,-8.50757 -3.18851,-9.13666 -3.42734,-11.49518 -0.12726,-1.25661 3.81784,-2.77762 11.62119,-1.45395 0.80124,-2.19403 -9.58817,-6.12408 -19.72427,-7.79218 -1.92563,-0.68212 -4.88663,-1.04595 -8.55701,-1.04501 z"
       id="path3573"
       stroke-miterlimit="4"
       inkscape:connector-curvature="0"
       style="fill:#784421;fill-rule:evenodd;stroke:#000000;stroke-width:4;stroke-linejoin:round;stroke-miterlimit:4" />
    <path
       d="m 271.90771,364.03561 a 30.848304,30.875595 0 1 1 -53.44263,30.85513 30.848304,30.875595 0 1 1 53.44263,-30.85513 z"
       id="path3159"
       stroke-miterlimit="4"
       inkscape:connector-curvature="0"
       style="fill:#784421;fill-rule:nonzero;stroke:#000000;stroke-width:6.36277008;stroke-linecap:round;stroke-linejoin:round;stroke-miterlimit:4" />
    <path
       d="m 382.86542,401.28104 a 30.841489,30.868785 0 1 1 -43.63574,-43.63574 30.841489,30.868785 0 1 1 43.63574,43.63574 z"
       id="path3161"
       stroke-miterlimit="4"
       inkscape:connector-curvature="0"
       style="fill:#784421;fill-rule:nonzero;stroke:#000000;stroke-width:6.36277008;stroke-linecap:round;stroke-linejoin:round;stroke-miterlimit:4" />
    <path
       d="m 377.20535,477.66827 c -40.83017,0 -73.98199,33.18115 -73.98199,74.04742 0,8.4494 1.42026,16.54248 4.02853,24.10852 l 139.86493,0 c 2.60828,-7.56604 4.02856,-15.65912 4.02856,-24.10852 0,-40.86627 -33.10983,-74.04742 -73.94003,-74.04742 z"
       id="path3163"
       stroke-miterlimit="4"
       inkscape:connector-curvature="0"
       style="fill:#784421;fill-rule:nonzero;stroke:#000000;stroke-width:4;stroke-linecap:round;stroke-linejoin:round;stroke-miterlimit:4" />
    <path
       d="m 229.24139,477.66827 c -40.8302,0 -73.94003,33.18115 -73.94003,74.04742 0,8.4494 1.42026,16.54248 4.02852,24.10852 l 139.86497,0 c 2.60825,-7.56604 4.0285,-15.65912 4.0285,-24.10852 0,-40.86627 -33.15179,-74.04742 -73.98196,-74.04742 z"
       id="path3165"
       stroke-miterlimit="4"
       inkscape:connector-curvature="0"
       style="fill:#784421;fill-rule:nonzero;stroke:#000000;stroke-width:4;stroke-linecap:round;stroke-linejoin:round;stroke-miterlimit:4" />
    <path
       d="m 295.61572,213.25925 a 27.47374,27.49805 0 1 1 -54.94748,0 27.47374,27.49805 0 1 1 54.94748,0 z"
       id="path3177"
       stroke-miterlimit="4"
       inkscape:connector-curvature="0"
       style="fill:#ffffff;fill-rule:nonzero;stroke:#000000;stroke-width:1.37421;stroke-linecap:round;stroke-linejoin:round;stroke-miterlimit:4" />
    <path
       d="m 356.48059,213.25925 a 27.47372,27.49803 0 1 1 -54.94739,0 27.47372,27.49803 0 1 1 54.94739,0 z"
       id="path3179"
       stroke-miterlimit="4"
       inkscape:connector-curvature="0"
       style="fill:#ffffff;fill-rule:nonzero;stroke:#000000;stroke-width:1.37421;stroke-linecap:round;stroke-linejoin:round;stroke-miterlimit:4" />
    <path
       d="m 287.13794,216.64363 a 8.87613,8.88399 0 1 1 -17.75226,0 8.87613,8.88399 0 1 1 17.75226,0 z"
       id="path3181"
       stroke-miterlimit="4"
       inkscape:connector-curvature="0"
       style="fill:#000000;fill-rule:nonzero;stroke-width:4;stroke-linecap:round;stroke-linejoin:round;stroke-miterlimit:4" />
    <path
       d="m 327.73883,216.64363 a 8.876145,8.884005 0 1 1 -17.75229,0 8.876145,8.884005 0 1 1 17.75229,0 z"
       id="path3183"
       stroke-miterlimit="4"
       inkscape:connector-curvature="0"
       style="fill:#000000;fill-rule:nonzero;stroke-width:4;stroke-linecap:round;stroke-linejoin:round;stroke-miterlimit:4" />
    <path
       d="m 284.37057,266.04797 c 4.48312,-4.78625 23.51633,-5.82568 27.49646,0.59827 3.98013,6.42395 -5.97748,19.74316 -13.74823,19.1449 -7.74786,-0.5965 -17.94244,-15.26538 -13.74823,-19.74316 z"
       id="path3192"
       inkscape:connector-curvature="0"
       style="fill:#000000;fill-rule:evenodd;stroke-width:1px" />
    <path
       d="m 234.32813,168.41628 c -2.95871,-42.72775 -46.91667,-52.45779 -49.03006,-47.38126 -2.11334,5.07657 8.03079,62.18787 49.03006,47.38126 z"
       id="path3216"
       stroke-miterlimit="4"
       inkscape:connector-curvature="0"
       style="fill:#502d16;fill-rule:evenodd;stroke:#000000;stroke-width:4;stroke-linejoin:round;stroke-miterlimit:4" />
    <path
       d="m 359.59952,168.41628 c 2.95871,-42.72775 46.91666,-52.45779 49.03003,-47.38126 2.11337,5.07657 -8.03076,62.18787 -49.03003,47.38126 z"
       id="path3218"
       stroke-miterlimit="4"
       inkscape:connector-curvature="0"
       style="fill:#502d16;fill-rule:evenodd;stroke:#000000;stroke-width:4;stroke-linejoin:round;stroke-miterlimit:4" />
    <path
       d="m 222.69501,554.47058 a 19.80687,23.520472 0 1 1 -39.61374,0 19.80687,23.520472 0 1 1 39.61374,0 z"
       id="path3220"
       stroke-miterlimit="4"
       inkscape:connector-curvature="0"
       style="fill:#502d16;fill-rule:nonzero;stroke:#000000;stroke-width:2.97744989;stroke-linecap:round;stroke-linejoin:round;stroke-miterlimit:4" />
    <path
       d="m 272.38004,554.47058 a 19.80687,23.520472 0 1 1 -39.61374,0 19.80687,23.520472 0 1 1 39.61374,0 z"
       id="path3224"
       stroke-miterlimit="4"
       inkscape:connector-curvature="0"
       style="fill:#502d16;fill-rule:nonzero;stroke:#000000;stroke-width:2.97744989;stroke-linecap:round;stroke-linejoin:round;stroke-miterlimit:4" />
    <path
       d="m 248.88037,554.47058 a 19.80687,23.520472 0 1 1 -39.61374,0 19.80687,23.520472 0 1 1 39.61374,0 z"
       id="path3222"
       stroke-miterlimit="4"
       inkscape:connector-curvature="0"
       style="fill:#502d16;fill-rule:nonzero;stroke:#000000;stroke-width:2.97744989;stroke-linecap:round;stroke-linejoin:round;stroke-miterlimit:4" />
    <path
       d="m 375.10712,554.47058 a 19.80686,23.52046 0 1 1 -39.61371,0 19.80686,23.52046 0 1 1 39.61371,0 z"
       id="path3226"
       stroke-miterlimit="4"
       inkscape:connector-curvature="0"
       style="fill:#502d16;fill-rule:nonzero;stroke:#000000;stroke-width:2.97744989;stroke-linecap:round;stroke-linejoin:round;stroke-miterlimit:4" />
    <path
       d="m 424.79214,554.47058 a 19.80687,23.520472 0 1 1 -39.61374,0 19.80687,23.520472 0 1 1 39.61374,0 z"
       id="path3228"
       stroke-miterlimit="4"
       inkscape:connector-curvature="0"
       style="fill:#502d16;fill-rule:nonzero;stroke:#000000;stroke-width:2.97744989;stroke-linecap:round;stroke-linejoin:round;stroke-miterlimit:4" />
    <path
       d="m 401.29248,554.47058 a 19.80686,23.52046 0 1 1 -39.61371,0 19.80686,23.52046 0 1 1 39.61371,0 z"
       id="path3230"
       stroke-miterlimit="4"
       inkscape:connector-curvature="0"
       style="fill:#502d16;fill-rule:nonzero;stroke:#000000;stroke-width:2.97744989;stroke-linecap:round;stroke-linejoin:round;stroke-miterlimit:4" />
    <path
       d="m 254.90491,386.85773 a 9.6586177,11.011881 0 1 1 -10.61444,18.401 9.6586177,11.011881 0 1 1 10.61444,-18.401 z"
       id="path3264"
       stroke-miterlimit="4"
       inkscape:connector-curvature="0"
       style="fill:#502d16;fill-rule:nonzero;stroke:#000000;stroke-width:5.67028999;stroke-linecap:round;stroke-linejoin:round;stroke-miterlimit:4" />
    <path
       d="m 268.21796,363.7785 a 9.658607,11.011868 0 1 1 -10.61444,18.40097 9.658607,11.011868 0 1 1 10.61444,-18.40097 z"
       id="path3266"
       stroke-miterlimit="4"
       inkscape:connector-curvature="0"
       style="fill:#502d16;fill-rule:nonzero;stroke:#000000;stroke-width:5.67028999;stroke-linecap:round;stroke-linejoin:round;stroke-miterlimit:4" />
    <path
       d="m 267.27118,378.58932 a 9.658607,11.011868 0 1 1 -10.61444,18.40097 9.658607,11.011868 0 1 1 10.61444,-18.40097 z"
       id="path3268"
       stroke-miterlimit="4"
       inkscape:connector-curvature="0"
       style="fill:#502d16;fill-rule:nonzero;stroke:#000000;stroke-width:5.67028999;stroke-linecap:round;stroke-linejoin:round;stroke-miterlimit:4" />
    <path
       d="M 350.57715,384.92114"
       id="path3270"
       stroke-miterlimit="4"
       inkscape:connector-curvature="0"
       style="fill:#502d16;fill-rule:nonzero;stroke:#000000;stroke-width:5.67028999;stroke-linecap:round;stroke-linejoin:round;stroke-miterlimit:4" />
    <path
       d="M 343.69116,359.18274"
       id="path3272"
       stroke-miterlimit="4"
       inkscape:connector-curvature="0"
       style="fill:#502d16;fill-rule:nonzero;stroke:#000000;stroke-width:5.67028999;stroke-linecap:round;stroke-linejoin:round;stroke-miterlimit:4" />
    <path
       d="M 340.77237,373.73395"
       id="path3274"
       stroke-miterlimit="4"
       inkscape:connector-curvature="0"
       style="fill:#502d16;fill-rule:nonzero;stroke:#000000;stroke-width:5.67028999;stroke-linecap:round;stroke-linejoin:round;stroke-miterlimit:4" />
    <title
       id="title34">Layer 1</title>
    <path
       d="m 349.75119,381.25256 a 11.011881,9.6586179 42.26848 1 1 -6.47741,-20.23131 11.011881,9.6586179 42.26848 0 1 6.47741,20.23131 z"
       id="path3264-1"
       stroke-miterlimit="4"
       inkscape:connector-curvature="0"
       style="fill:#502d16;fill-rule:nonzero;stroke:#000000;stroke-width:5.67028999;stroke-linecap:round;stroke-linejoin:round;stroke-miterlimit:4" />
    <path
       d="m 357.87544,406.62745 a 11.011886,9.6586233 42.26848 1 1 -6.47742,-20.23132 11.011886,9.6586233 42.26848 0 1 6.47742,20.23132 z"
       id="path3266-7"
       stroke-miterlimit="4"
       inkscape:connector-curvature="0"
       style="fill:#502d16;fill-rule:nonzero;stroke:#000000;stroke-width:5.67028999;stroke-linecap:round;stroke-linejoin:round;stroke-miterlimit:4" />
    <path
       d="m 347.55222,395.96499 a 11.011881,9.6586195 42.26848 0 1 -6.47741,-20.23132 11.011881,9.6586195 42.26848 1 1 6.47741,20.23132 z"
       id="path3268-4"
       stroke-miterlimit="4"
       inkscape:connector-curvature="0"
       style="fill:#502d16;fill-rule:nonzero;stroke:#000000;stroke-width:5.67028999;stroke-linecap:round;stroke-linejoin:round;stroke-miterlimit:4" />
  </g>
</svg>
