<?xml version="1.0" encoding="UTF-8" standalone="no"?>
<svg
   xmlns:dc="http://purl.org/dc/elements/1.1/"
   xmlns:cc="http://creativecommons.org/ns#"
   xmlns:rdf="http://www.w3.org/1999/02/22-rdf-syntax-ns#"
   xmlns:svg="http://www.w3.org/2000/svg"
   xmlns="http://www.w3.org/2000/svg"
   xmlns:sodipodi="http://sodipodi.sourceforge.net/DTD/sodipodi-0.dtd"
   xmlns:inkscape="http://www.inkscape.org/namespaces/inkscape"
   width="800"
   height="600"
   id="svg2"
   version="1.1"
   inkscape:version="0.48.4 r9939"
   sodipodi:docname="svg_squirrel_angry.svg">
  <metadata
     id="metadata42">
    <rdf:RDF>
      <cc:Work
         rdf:about="">
        <dc:format>image/svg+xml</dc:format>
        <dc:type
           rdf:resource="http://purl.org/dc/dcmitype/StillImage" />
      </cc:Work>
    </rdf:RDF>
  </metadata>
  <defs
     id="defs40" />
  <sodipodi:namedview
     pagecolor="#ffffff"
     bordercolor="#666666"
     borderopacity="1"
     objecttolerance="10"
     gridtolerance="10"
     guidetolerance="10"
     inkscape:pageopacity="0"
     inkscape:pageshadow="2"
     inkscape:window-width="1538"
     inkscape:window-height="878"
     id="namedview38"
     showgrid="false"
     inkscape:zoom="0.78666667"
     inkscape:cx="-9.4530103"
     inkscape:cy="226.01016"
     inkscape:window-x="1272"
     inkscape:window-y="-8"
     inkscape:window-maximized="1"
     inkscape:current-layer="g6" />
  <title
     id="title4">Squirrel</title>
  <g
     id="g6">
    <path
       d="m553.87,266.05499c-1.38898,78.86902 -54.32498,113.151 -55.19901,79.84399c-1.07599,-42.11298 -19.21399,-151.35399 -90.41498,-117.85698c-85.151,40.05901 -8.39001,284.06798 -33.04501,284.06798c-98.62,0 -178.659,-110.23199 -178.659,-246.05499c0,-135.82199 80.039,-246.05499 178.659,-246.05499c98.62,0 181.01898,111.96001 178.659,246.05499l0,0z"
       id="path3584"
       stroke-miterlimit="4"
       stroke-linejoin="round"
       stroke-linecap="round"
       stroke-width="4"
       stroke="#000000"
       fill-rule="nonzero"
       fill="#784421" />
    <path
       d="m461.30334,407.43774a163.15167,163.29607 0 1 1 -326.30331,0a163.15167,163.29607 0 1 1 326.30331,0z"
       id="path2385"
       stroke-miterlimit="4"
       stroke-linejoin="round"
       stroke-linecap="round"
       stroke-width="2.97745"
       stroke="#000000"
       fill-rule="nonzero"
       fill="#784421" />
    <path
       d="m409.93652,108.12114c-19.80954,0.0051 -60.05051,10.54221 -67.09427,37.87045c-0.10675,0.21368 -0.3219,0.97461 -0.54474,2.1355c-12.74557,-7.78522 -27.72427,-12.31302 -43.7384,-12.31302c-16.71286,0 -32.25345,4.93506 -45.34991,13.35803c-0.26917,-1.70642 -0.59207,-2.91177 -0.72632,-3.18051c-7.04379,-27.32821 -47.28122,-37.84179 -67.09427,-37.84774c-3.15843,-0.00095 -5.76917,0.27029 -7.67181,0.7724c-10.63554,1.48009 -22.27278,5.72491 -21.42657,8.04208c7.80333,-1.32367 11.74844,0.19733 11.6212,1.45395c-0.23885,2.35852 -4.94231,2.98761 -3.42735,11.49518c2.85185,-4.13013 6.82388,-5.54169 9.94157,-6.20193c3.20265,20.08151 17.20168,55.15833 43.3979,56.97607c2.2467,0.15591 4.35217,0.1539 6.33264,0.11362c-6.18341,11.71829 -9.69189,25.06775 -9.69189,39.23352c0,46.47084 37.66507,100.32155 84.09482,100.32155c46.42978,0 84.14023,-53.85071 84.14023,-100.32155c0,-14.1524 -3.51938,-27.47775 -9.69189,-39.18811c1.42654,-0.01239 2.93878,-0.05109 4.49411,-0.15903c26.11649,-1.81223 40.11673,-36.68341 43.37524,-56.79434c2.97513,0.73318 6.53421,2.23605 9.14716,6.0202c1.51495,-8.50757 -3.18851,-9.13666 -3.42734,-11.49518c-0.12726,-1.25661 3.81784,-2.77762 11.62119,-1.45395c0.80124,-2.19403 -9.58817,-6.12408 -19.72427,-7.79218c-1.92563,-0.68212 -4.88663,-1.04595 -8.55701,-1.04501z"
       id="path3573"
       stroke-miterlimit="4"
       stroke-linejoin="round"
       stroke-width="4"
       stroke="#000000"
       fill-rule="evenodd"
       fill="#784421" />
    <path
       d="m377.20535,477.66827c-40.83017,0 -73.98199,33.18115 -73.98199,74.04742c0,8.4494 1.42026,16.54248 4.02853,24.10852l139.86493,0c2.60828,-7.56604 4.02856,-15.65912 4.02856,-24.10852c0,-40.86627 -33.10983,-74.04742 -73.94003,-74.04742z"
       id="path3163"
       stroke-miterlimit="4"
       stroke-linejoin="round"
       stroke-linecap="round"
       stroke-width="4"
       stroke="#000000"
       fill-rule="nonzero"
       fill="#784421" />
    <path
       d="m229.24139,477.66827c-40.8302,0 -73.94003,33.18115 -73.94003,74.04742c0,8.4494 1.42026,16.54248 4.02852,24.10852l139.86497,0c2.60825,-7.56604 4.0285,-15.65912 4.0285,-24.10852c0,-40.86627 -33.15179,-74.04742 -73.98196,-74.04742z"
       id="path3165"
       stroke-miterlimit="4"
       stroke-linejoin="round"
       stroke-linecap="round"
       stroke-width="4"
       stroke="#000000"
       fill-rule="nonzero"
       fill="#784421" />
    <path
       d="m296.61554,214.25945a30.47363,16.49804 0 1 1 -60.94727,0a30.47363,16.49804 0 1 1 60.94727,0z"
       id="path3177"
       stroke-miterlimit="4"
       stroke-linejoin="round"
       stroke-linecap="round"
       stroke-width="1.37421"
       stroke="#000000"
       fill-rule="nonzero"
       fill="#ffffff" />
    <path
       d="m362.48059,214.25948a30.97361,16.51364 0 1 1 -61.94714,0a30.97361,16.51364 0 1 1 61.94714,0z"
       id="path3179"
       stroke-miterlimit="4"
       stroke-linejoin="round"
       stroke-linecap="round"
       stroke-width="1.37421"
       stroke="#000000"
       fill-rule="nonzero"
       fill="#ffffff" />
    <path
       d="m287.13794,216.64363a8.87613,8.88399 0 1 1 -17.75226,0a8.87613,8.88399 0 1 1 17.75226,0z"
       id="path3181"
       stroke-miterlimit="4"
       stroke-linejoin="round"
       stroke-linecap="round"
       stroke-width="4"
       fill-rule="nonzero"
       fill="#000000" />
    <path
       d="m327.73883,216.64363a8.87613,8.88399 0 1 1 -17.75229,0a8.87613,8.88399 0 1 1 17.75229,0z"
       id="path3183"
       stroke-miterlimit="4"
       stroke-linejoin="round"
       stroke-linecap="round"
       stroke-width="4"
       fill-rule="nonzero"
       fill="#000000" />
    <path
       d="m284.37057,266.04797c4.48312,-4.78625 23.51633,-5.82568 27.49646,0.59827c3.98013,6.42395 -5.97748,19.74316 -13.74823,19.1449c-7.74786,-0.5965 -17.94244,-15.26538 -13.74823,-19.74316z"
       id="path3192"
       stroke-width="1px"
       fill-rule="evenodd"
       fill="#000000" />
    <path
       d="m234.32813,168.41628c-2.95871,-42.72775 -46.91667,-52.45779 -49.03006,-47.38126c-2.11334,5.07657 8.03079,62.18787 49.03006,47.38126z"
       id="path3216"
       stroke-miterlimit="4"
       stroke-linejoin="round"
       stroke-width="4"
       stroke="#000000"
       fill-rule="evenodd"
       fill="#502d16" />
    <path
       d="m359.59952,168.41628c2.95871,-42.72775 46.91666,-52.45779 49.03003,-47.38126c2.11337,5.07657 -8.03076,62.18787 -49.03003,47.38126z"
       id="path3218"
       stroke-miterlimit="4"
       stroke-linejoin="round"
       stroke-width="4"
       stroke="#000000"
       fill-rule="evenodd"
       fill="#502d16" />
    <path
       d="m222.69501,554.47058a19.80686,23.52046 0 1 1 -39.61374,0a19.80686,23.52046 0 1 1 39.61374,0z"
       id="path3220"
       stroke-miterlimit="4"
       stroke-linejoin="round"
       stroke-linecap="round"
       stroke-width="2.97745"
       stroke="#000000"
       fill-rule="nonzero"
       fill="#502d16" />
    <path
       d="m272.38004,554.47058a19.80686,23.52046 0 1 1 -39.61374,0a19.80686,23.52046 0 1 1 39.61374,0z"
       id="path3224"
       stroke-miterlimit="4"
       stroke-linejoin="round"
       stroke-linecap="round"
       stroke-width="2.97745"
       stroke="#000000"
       fill-rule="nonzero"
       fill="#502d16" />
    <path
       d="m248.88037,554.47058a19.80686,23.52046 0 1 1 -39.61374,0a19.80686,23.52046 0 1 1 39.61374,0z"
       id="path3222"
       stroke-miterlimit="4"
       stroke-linejoin="round"
       stroke-linecap="round"
       stroke-width="2.97745"
       stroke="#000000"
       fill-rule="nonzero"
       fill="#502d16" />
    <path
       d="m375.10712,554.47058a19.80686,23.52046 0 1 1 -39.61371,0a19.80686,23.52046 0 1 1 39.61371,0z"
       id="path3226"
       stroke-miterlimit="4"
       stroke-linejoin="round"
       stroke-linecap="round"
       stroke-width="2.97745"
       stroke="#000000"
       fill-rule="nonzero"
       fill="#502d16" />
    <path
       d="m424.79214,554.47058a19.80686,23.52046 0 1 1 -39.61374,0a19.80686,23.52046 0 1 1 39.61374,0z"
       id="path3228"
       stroke-miterlimit="4"
       stroke-linejoin="round"
       stroke-linecap="round"
       stroke-width="2.97745"
       stroke="#000000"
       fill-rule="nonzero"
       fill="#502d16" />
    <path
       d="m401.29248,554.47058a19.80686,23.52046 0 1 1 -39.61371,0a19.80686,23.52046 0 1 1 39.61371,0z"
       id="path3230"
       stroke-miterlimit="4"
       stroke-linejoin="round"
       stroke-linecap="round"
       stroke-width="2.97745"
       stroke="#000000"
       fill-rule="nonzero"
       fill="#502d16" />
    <title
       id="title26">Layer 1</title>
    <g
       transform="rotate(-60, 265.186, 354.463)"
       id="svg_1">
      <path
         d="m291.90771,339.03561a26.72131,26.74495 0 1 1 -53.44263,30.85513a26.72131,26.74495 0 1 1 53.44263,-30.85513z"
         id="path3159"
         stroke-miterlimit="4"
         stroke-linejoin="round"
         stroke-linecap="round"
         stroke-width="6.36277"
         stroke="#000000"
         fill-rule="nonzero"
         fill="#784421" />
      <path
         d="m274.90491,361.85773a5.30721,6.0508 0 1 1 -10.61444,18.401a5.30721,6.0508 0 1 1 10.61444,-18.401z"
         id="path3264"
         stroke-miterlimit="4"
         stroke-linejoin="round"
         stroke-linecap="round"
         stroke-width="5.67029"
         stroke="#000000"
         fill-rule="nonzero"
         fill="#502d16" />
      <path
         d="m288.21796,338.7785a5.30721,6.0508 0 1 1 -10.61444,18.40097a5.30721,6.0508 0 1 1 10.61444,-18.40097z"
         id="path3266"
         stroke-miterlimit="4"
         stroke-linejoin="round"
         stroke-linecap="round"
         stroke-width="5.67029"
         stroke="#000000"
         fill-rule="nonzero"
         fill="#502d16" />
      <path
         d="m287.27118,353.58932a5.30721,6.0508 0 1 1 -10.61444,18.40097a5.30721,6.0508 0 1 1 10.61444,-18.40097z"
         id="path3268"
         stroke-miterlimit="4"
         stroke-linejoin="round"
         stroke-linecap="round"
         stroke-width="5.67029"
         stroke="#000000"
         fill-rule="nonzero"
         fill="#502d16" />
    </g>
    <g
       transform="rotate(60, 340.049, 354.463)"
       id="svg_2">
      <path
         d="m361.86542,376.28104a21.81786,21.83717 0 1 1 -43.63574,-43.63574a21.81786,21.83717 0 1 1 43.63574,43.63574z"
         id="path3161"
         stroke-miterlimit="4"
         stroke-linejoin="round"
         stroke-linecap="round"
         stroke-width="6.36277"
         stroke="#000000"
         fill-rule="nonzero"
         fill="#784421" />
      <path
         d="m329.57715,359.92114a-2.74511,3.13452 0 1 1 5.49023,20.52121a-2.74511,3.13452 0 1 1 -5.49023,-20.52121z"
         id="path3270"
         stroke-miterlimit="4"
         stroke-linejoin="round"
         stroke-linecap="round"
         stroke-width="5.67029"
         stroke="#000000"
         fill-rule="nonzero"
         fill="#502d16" />
      <path
         d="m322.69116,334.18274a-2.74511,3.13452 0 1 1 5.49023,20.52121a-2.74511,3.13452 0 1 1 -5.49023,-20.52121z"
         id="path3272"
         stroke-miterlimit="4"
         stroke-linejoin="round"
         stroke-linecap="round"
         stroke-width="5.67029"
         stroke="#000000"
         fill-rule="nonzero"
         fill="#502d16" />
      <path
         d="m319.77237,348.73395a-2.74511,3.13452 0 1 1 5.4902,20.52121a-2.74511,3.13452 0 1 1 -5.4902,-20.52121z"
         id="path3274"
         stroke-miterlimit="4"
         stroke-linejoin="round"
         stroke-linecap="round"
         stroke-width="5.67029"
         stroke="#000000"
         fill-rule="nonzero"
         fill="#502d16" />
    </g>
    <path
       d="m 332.86647,344.97624 a 9.6586233,11.011886 5.16848 0 1 12.22896,-17.36997 9.6586233,11.011886 5.16848 1 1 -12.22896,17.36997 z"
       id="path3264-1"
       stroke-miterlimit="4"
       inkscape:connector-curvature="0"
       style="fill:#502d16;fill-rule:nonzero;stroke:#000000;stroke-width:5.67028999;stroke-linecap:round;stroke-linejoin:round;stroke-miterlimit:4" />
    <path
       d="m 315.52844,366.76232 a 9.6586246,11.011888 5.16848 1 1 12.22897,-17.36993 9.6586246,11.011888 5.16848 0 1 -12.22897,17.36993 z"
       id="path3266-7"
       stroke-miterlimit="4"
       inkscape:connector-curvature="0"
       style="fill:#502d16;fill-rule:nonzero;stroke:#000000;stroke-width:5.67028999;stroke-linecap:round;stroke-linejoin:round;stroke-miterlimit:4" />
    <path
       d="m 319.80562,352.09703 a 9.6586202,11.011882 5.16848 0 1 12.22897,-17.36993 9.6586202,11.011882 5.16848 1 1 -12.22897,17.36993 z"
       id="path3268-4"
       stroke-miterlimit="4"
       inkscape:connector-curvature="0"
       style="fill:#502d16;fill-rule:nonzero;stroke:#000000;stroke-width:5.67028999;stroke-linecap:round;stroke-linejoin:round;stroke-miterlimit:4" />
  </g>
</svg>
