<?xml version="1.0" encoding="UTF-8" standalone="no"?>
<!-- Created with Inkscape (http://www.inkscape.org/) -->

<svg
   xmlns:dc="http://purl.org/dc/elements/1.1/"
   xmlns:cc="http://creativecommons.org/ns#"
   xmlns:rdf="http://www.w3.org/1999/02/22-rdf-syntax-ns#"
   xmlns:svg="http://www.w3.org/2000/svg"
   xmlns="http://www.w3.org/2000/svg"
   xmlns:sodipodi="http://sodipodi.sourceforge.net/DTD/sodipodi-0.dtd"
   xmlns:inkscape="http://www.inkscape.org/namespaces/inkscape"
   width="210mm"
   height="297mm"
   id="svg2"
   version="1.1"
   inkscape:version="0.48.4 r9939"
   sodipodi:docname="Neues Dokument 1">
  <defs
     id="defs4" />
  <sodipodi:namedview
     id="base"
     pagecolor="#ffffff"
     bordercolor="#666666"
     borderopacity="1.0"
     inkscape:pageopacity="0.0"
     inkscape:pageshadow="2"
     inkscape:zoom="1.4"
     inkscape:cx="455.45622"
     inkscape:cy="463.36378"
     inkscape:document-units="px"
     inkscape:current-layer="layer2"
     showgrid="false"
     inkscape:window-width="1538"
     inkscape:window-height="878"
     inkscape:window-x="1272"
     inkscape:window-y="-8"
     inkscape:window-maximized="1" />
  <metadata
     id="metadata7">
    <rdf:RDF>
      <cc:Work
         rdf:about="">
        <dc:format>image/svg+xml</dc:format>
        <dc:type
           rdf:resource="http://purl.org/dc/dcmitype/StillImage" />
        <dc:title></dc:title>
      </cc:Work>
    </rdf:RDF>
  </metadata>
  <g
     inkscape:groupmode="layer"
     id="layer2"
     inkscape:label="Ebene"
     style="display:inline">
    <path
       style="fill:#366e9d;fill-rule:evenodd;stroke:#000000;stroke-width:4;display:inline"
       inkscape:connector-curvature="0"
       id="path1974"
       d="m 386.40361,637.56272 4.12601,6.002 c 0,0 6.00198,4.501 6.75198,4.689 0.75101,0.187 6.00201,2.626 6.00201,2.626 l 3.939,0.938 0.18799,-1.689 -0.93799,-4.12601 -1.31299,-4.314 -14.06702,-22.132 -6.19,-39.576 -2.81299,0 -5.81401,29.63499 4.313,15.94301 5.815,12.004 0,0 0,0 z" />
    <path
       style="fill:#7892b3;fill-rule:evenodd;stroke:#000000;stroke-width:4;display:inline"
       inkscape:connector-curvature="0"
       id="path1976"
       d="m 410.48304,640.23216 11.06601,10.1283 13.13,5.6268 -16.69299,-27.3839 -14.255,-53.6425 -18.00601,-12.192 7.315,50.8295 6.19,15.1925 11.25299,11.4413 0,0 z" />
    <path
       style="fill:#768fad;fill-rule:evenodd;stroke:#000000;stroke-width:4;display:inline"
       inkscape:connector-curvature="0"
       id="path1978"
       d="m 474.55218,643.37972 19.13101,8.43999 13.87997,2.4383 9.00302,0 c 0,0 -8.25302,-12.7543 -9.37802,-13.6923 -1.12598,-0.938 -11.06699,-11.066 -11.06699,-11.066 0,0 -11.62799,-6.377 -12.754,-7.502 -1.125,-1.126 -11.629,-12.379 -12.56601,-12.379 -0.93799,0 -7.87799,-9.00301 -8.62799,-9.37801 -0.75,-0.37599 -10.69101,-10.31599 -10.69101,-10.31599 l -17.63098,-11.06599 c 0,0 -3.37601,-1.688 -4.12601,-1.50101 -0.75101,0.188 -1.31302,-0.187 -1.31302,0.563 0,0.75 0.18701,0.187 0.18701,1.125 0,0.938 7.12799,13.129 7.50299,13.87999 0.375,0.75 9.94101,20.25601 9.94101,20.25601 l 9.94,16.131 c 0,0 6.19,4.314 7.315,5.251 1.12601,0.938 11.44101,9.003 11.254,8.816 l 0,0 z" />
    <path
       style="fill:#6093b2;fill-rule:evenodd;stroke:#000000;stroke-width:4;display:inline"
       inkscape:connector-curvature="0"
       id="path1980"
       d="m 430.50705,532.68185 -15.005,-4.68901 -16.31799,0 -11.81601,26.821 2.25,4.31401 9.56601,8.25301 29.82199,8.252 22.133,12.38 -10.31601,-18.944 c 0,0 -9.19098,-21.94501 -9.37799,-22.69501 -0.18799,-0.75 -1.12601,-14.25499 -0.93799,-13.692 l 0,0 z" />
    <path
       style="fill:#2e6d98;fill-rule:evenodd;stroke:#000000;stroke-width:4;display:inline"
       inkscape:connector-curvature="0"
       id="path1982"
       d="m 436.79233,652.50649 c 0,0 17.241,13.5278 18.56799,13.5278 1.32602,0 19.89301,7.6923 19.89301,7.6923 l 5.57101,0 c 0,0 -1.59201,-5.5703 -1.85699,-6.6312 -0.26501,-1.0611 -6.63101,-15.11909 -6.63101,-15.11909 0,0 -20.95502,-18.833 -20.95502,-20.69 0,-1.857 -26.79099,-54.377 -26.79099,-54.377 l -20.689,-3.978 c 0,0 8.22198,17.506 8.22198,19.62799 0,2.12201 4.51001,23.608 4.51001,23.608 0,0 6.366,15.384 6.896,16.44501 0.53101,1.061 13.793,19.8942 13.263,19.8942 l 0,0 0,0 z" />
  </g>
  <g
     inkscape:label="Ebene 1"
     inkscape:groupmode="layer"
     id="layer1"
     style="display:inline">
    <path
       style="fill:#9096a6;fill-rule:evenodd;stroke:#000000;stroke-width:4"
       inkscape:connector-curvature="0"
       id="path1946"
       d="m 474.59921,514.69984 -5.02094,-8.33267 -17.79074,-7.58244 c 0,0 -13.79309,-3.71352 -16.44565,-3.71352 -2.65253,0 -9.01855,0 -9.01855,0 l -12.73212,2.12201 c 0,0 -4.24402,2.12202 -6.36603,2.12202 -2.12201,0 -8.48804,0 -8.48804,0 l -9.17395,2.25073 -12.67883,-0.75024 0.43951,4.33504 1.78461,6.36606 -3.11377,10.24298 -6.00195,9.00294 c 0,0 -7.12738,3.37613 -9.00299,3.37613 -1.87558,0 -21.00688,3.3761 -22.88249,3.3761 -1.87561,0 -9.75319,0 -11.25369,0 -1.50049,0 -7.87758,5.62686 -7.87758,5.62686 l -22.88248,31.88544 7.87755,1.50049 c 0,0 18.38101,3.00098 19.88153,3.00098 1.50049,0 30.00984,0.37512 30.00984,0.37512 l 19.13129,-0.37512 26.25861,-5.25171 28.88446,-15.75516 46.4624,-43.82204 z" />
    <path
       style="fill:#253267;fill-rule:evenodd;stroke:#000000;stroke-width:4"
       inkscape:connector-curvature="0"
       id="path1948"
       d="m 417.8837,498.50171 10.129,-4.127 13.504,-9.00301 12.004,-5.252 10.879,-0.75 6.75201,3.00101 6.37698,6.377 3.00101,7.87801 -7.12698,5.627 -7.12802,2.25 -6.75198,2.25099 -11.254,-5.25099 -15.38,-3.93901 -15.005,0.938 0,0 0,0 z" />
    <path
       style="fill:#9b3225;fill-rule:evenodd;stroke:#000000;stroke-width:4"
       inkscape:connector-curvature="0"
       id="path1950"
       d="m 480.71771,495.62572 38.07498,-0.75 8.25201,3.18799 -13.129,3.37602 -18.00601,6.18999 -17.44299,6.94 -6.37701,2.25 -4.689,-8.065 -7.50299,-2.81299 14.255,-4.877 7.50198,-5.81401 -0.93698,0.375 0,0 z" />
    <path
       style="fill:#2c517e;fill-rule:evenodd;stroke:#000000;stroke-width:4"
       inkscape:connector-curvature="0"
       id="path1952"
       d="m 322.97771,540.88971 c -2.25,0 -22.882,-1.125 -22.882,-1.125 l -31.886,22.883 -30.38499,19.50601 -23.632,14.63 -20.257,9.37799 24.758,1.875 25.133,-4.50101 9.754,-4.12601 40.888,-22.133 10.12799,-13.129 12.754,-18.38098 5.62701,-4.87701 0,0 0,0 z" />
    <path
       style="fill:#000000;fill-rule:evenodd;stroke:#000000;stroke-width:4"
       inkscape:connector-curvature="0"
       id="path1954"
       d="m 252.83,600.1597 1.5005,3.75101 -4.12631,7.12701 45.3895,-28.884 22.50801,4.12601 4.50101,-3.00101 -28.13402,-6.00201 -41.63869,22.883 0,0 z" />
    <path
       style="fill:#26527f;fill-rule:evenodd;stroke:#000000;stroke-width:4"
       inkscape:connector-curvature="0"
       id="path1956"
       d="m 249.829,608.91272 -8.62779,13.504 1.1254,0.75101 4.5014,0 45.38989,-20.25702 7.12781,-6.37698 17.25499,-10.50302 -21.38202,-4.87698 -45.38968,27.759 0,0 z" />
    <path
       style="fill:#607796;fill-rule:evenodd;stroke:#000000;stroke-width:4"
       inkscape:connector-curvature="0"
       id="path1958"
       d="m 323.68635,496.29755 -20.257,8.25299 -14.63,10.87901 -3.75099,10.12799 0.75,4.12601 c 0,0 0.375,1.12599 3.752,1.12599 3.37599,0 15.755,-1.50099 15.755,-1.50099 l 27.00899,-7.502 29.259,-10.879 9.75301,-8.25201 -4.12601,-2.25101 -17.256,-3.37598 -18.756,-1.12601 -9.37801,0 1.87601,0.375 0,0 z" />
    <path
       style="fill:#232345;fill-rule:evenodd;stroke:#000000;stroke-width:4"
       inkscape:connector-curvature="0"
       id="path1962"
       d="m 349.40021,567.92027 6.752,9.754 3.564,14.254 10.69101,19.132 1.875,-2.43901 1.12599,-19.131 c 0,0 4.689,-8.815 4.689,-9.94099 0,-1.125 3.00102,-13.129 3.00102,-13.129 0,0 4.68896,-12.19101 5.06396,-13.12901 0.375,-0.93799 7.12701,-20.25699 7.12701,-20.25699 0,0 0.75,-13.692 0.56299,-14.817 -0.18799,-1.12601 -1.125,-12.004 -1.125,-12.004 0,0 -6.565,-7.315 -7.315,-7.315 -0.75098,0 -6.93999,0 -7.87798,0 -0.938,0 -3.93901,1.125 -4.877,2.81299 -0.93701,1.688 -1.31201,4.12701 -2.063,5.44 -0.75,1.31201 -2.063,2.438 -3.563,3.37602 -1.50101,0.937 -4.314,1.5 -6.002,2.81299 -1.688,1.31299 -4.689,2.43799 -7.315,3.56401 -2.62599,1.125 -5.627,2.25098 -7.50299,3.18799 -1.87502,0.93799 -2.438,1.12599 -4.31401,2.62599 -1.875,1.50101 -3.37601,2.063 -3.93799,3.75101 -0.56302,1.688 -1.50101,2.43901 -1.50101,4.127 0,1.688 -0.563,2.438 -0.563,5.25099 0,2.81401 -1.125,2.81401 0,5.815 1.12599,3.00101 1.50099,8.065 3.18901,9.94101 1.68799,1.875 3.564,4.87599 4.689,6.377 1.125,1.5 4.31401,5.43901 4.50099,6.377 0.188,0.938 1.313,3.37599 1.12601,3.563 l 0,0 z" />
    <path
       style="fill:#2e638f;fill-rule:evenodd;stroke:#000000;stroke-width:4"
       inkscape:connector-curvature="0"
       id="path1964"
       d="m 339.85006,519.65525 -3.189,7.315 -0.937,11.442 -8.25301,7.877 -20.444,42.38901 -10.129,12.004 -3.75099,-1.313 c 0,0 0,-3.75099 0,-4.50099 0,-0.75101 0.75,-29.823 0.75,-29.823 l 1.87599,-7.69 5.439,-12.004 10.87901,-13.50401 16.50499,-9.56599 11.254,-2.62601 0,0 0,0 z" />
    <path
       style="fill:#6e8bad;fill-rule:evenodd;stroke:#000000;stroke-width:4"
       inkscape:connector-curvature="0"
       id="path1966"
       d="m 323.97107,645.16997 -0.938,16.50581 -2.06299,12.1915 c 0,0 -2.063,0.7502 -2.063,0 0,-0.7503 -11.06599,-36.5743 -11.06599,-36.5743 l -1.688,-10.69099 c 0,0 -0.188,-9.00301 -0.188,-10.31601 0,-1.31299 0.75101,-21.00699 0.75101,-21.00699 l 3.93799,-9.75301 8.06601,-19.694 15.37999,-23.633 6.18901,16.31799 -12.004,38.825 -2.813,14.63 -1.50101,33.198 0,0 0,0 z" />
    <path
       style="fill:#2c6998;fill-rule:evenodd;stroke:#000000;stroke-width:4"
       inkscape:connector-curvature="0"
       id="path1970"
       d="m 358.74249,668.1248 3.00101,11.2536 8.815,21.3821 1.125,9.0029 -4.12601,0 c 0,0 -6.189,-5.8144 -6.752,-6.5646 -0.563,-0.7503 -12.004,-13.1293 -12.004,-13.1293 l -9.00301,-13.1293 c 0,0 -5.252,-9.9408 -5.252,-12.19151 0,-2.2508 -4.314,-20.2563 -4.314,-20.2563 l -0.562,-34.137 c 0,0 2.62599,-14.254 2.62599,-15.004 0,-0.75099 1.5,-9.379 1.5,-9.379 l 8.065,-24.383 11.254,12.942 -0.18799,42.38899 0.56299,18.381 3.93901,22.6951 1.31299,10.1283 0,0 z" />
    <path
       style="fill:#7b95b0;fill-rule:evenodd;stroke:#000000;stroke-width:4"
       inkscape:connector-curvature="0"
       id="path1972"
       d="m 377.53521,638.85697 6.75201,22.6954 6.189,17.4432 5.44,12.7542 0.56198,8.0651 -2.62598,0.1876 -3.37601,-0.9378 -12.379,-14.6298 -12.56601,-20.6318 -7.87801,-21.0071 -3.00099,-10.878 1.688,-45.39 15.94299,29.07201 5.252,23.257 0,0 0,0 z" />
    <g
       id="g2857"
       transform="translate(100.4357,273.44171)">
      <path
         style="opacity:0.99532997;fill:#2cf021;fill-rule:nonzero;stroke-width:1.22099996;stroke-miterlimit:4;stroke-dashoffset:0;marker-start:none;marker-mid:none;marker-end:none"
         inkscape:connector-curvature="0"
         stroke-miterlimit="4"
         d="m 370.5719,219.26324 a 10.61009,9.549059 0 1 1 -21.22018,0 10.61009,9.549059 0 1 1 21.22018,0 z"
         id="path1961" />
      <path
         style="opacity:0.99532997;fill:#151e14;fill-rule:nonzero;stroke-width:1.22099996;stroke-miterlimit:4;stroke-dashoffset:0;marker-start:none;marker-mid:none;marker-end:none"
         inkscape:connector-curvature="0"
         stroke-miterlimit="4"
         id="path2851"
         d="m 365.90646,219.43687 a 2.78421,5.55581 0 1 1 -5.56842,0 2.78421,5.55581 0 1 1 5.56842,0 z" />
    </g>
  </g>
</svg>
