<?xml version="1.0" encoding="UTF-8" standalone="no"?>
<svg
   xmlns:dc="http://purl.org/dc/elements/1.1/"
   xmlns:cc="http://creativecommons.org/ns#"
   xmlns:rdf="http://www.w3.org/1999/02/22-rdf-syntax-ns#"
   xmlns:svg="http://www.w3.org/2000/svg"
   xmlns="http://www.w3.org/2000/svg"
   xmlns:sodipodi="http://sodipodi.sourceforge.net/DTD/sodipodi-0.dtd"
   xmlns:inkscape="http://www.inkscape.org/namespaces/inkscape"
   width="640"
   height="480"
   id="svg2"
   version="1.1"
   inkscape:version="0.48.4 r9939"
   sodipodi:docname="svg_branch.svg">
  <defs
     id="defs16" />
  <sodipodi:namedview
     pagecolor="#ffffff"
     bordercolor="#666666"
     borderopacity="1"
     objecttolerance="10"
     gridtolerance="10"
     guidetolerance="10"
     inkscape:pageopacity="0"
     inkscape:pageshadow="2"
     inkscape:window-width="1538"
     inkscape:window-height="878"
     id="namedview14"
     showgrid="false"
     inkscape:zoom="0.98333333"
     inkscape:cx="487.3675"
     inkscape:cy="508.74712"
     inkscape:window-x="-8"
     inkscape:window-y="-8"
     inkscape:window-maximized="1"
     inkscape:current-layer="layer2" />
  <title
     id="title4">Brown Tree Branch</title>
  <metadata
     id="metadata7">image/svg+xmlstick03 13 2007SRDstickwooda stick of wood<rdf:RDF>
  <cc:Work
     rdf:about="">
    <dc:format>image/svg+xml</dc:format>
    <dc:type
       rdf:resource="http://purl.org/dc/dcmitype/StillImage" />
    <dc:title>Brown Tree Branch</dc:title>
  </cc:Work>
</rdf:RDF>
</metadata>
  <g
     inkscape:groupmode="layer"
     id="layer2"
     inkscape:label="Ebene 2"
     style="display:inline">
    <path
       style="fill:#7f3f00;fill-opacity:1;stroke:#000000;stroke-width:2;stroke-linecap:butt;stroke-linejoin:miter;stroke-miterlimit:4;stroke-opacity:1;stroke-dasharray:none"
       d="m 966.9414,124.04778 c -54.16025,-0.78054 -70.52293,1.85528 -77.88088,-1.37546 -4.69948,-2.06352 0.0462,-5.11141 0.0462,-5.11141 0.5316,-1.84339 -0.61385,-3.30733 -4.2868,-4.93778 -17.28168,4.01265 -30.29034,11.74468 -51.55777,12.1054 -19.38465,-0.29978 -32.05184,-0.0819 -60.17053,-0.2037 l -117.8276,0.29942 -40.2108,0.0163 -40.21055,0.0163 -40.21077,0.0163 -10.12721,-4.66377 c -3.95549,-3.69555 -16.81052,-2.54658 -20.12888,-1.46316 l -9.95461,6.1437 -40.21075,0.0163 -40.21052,0.0164 -40.21071,0.0163 -40.21079,0.0164 -40.21058,0.0163 -40.2108,0.0164 30.95253,-14.55832 c -7.4038,-8.82312 -9.6605,-6.51087 -16.80413,-4.06173 l -54.35903,18.63686 -40.2108,0.0164 -40.21069,0.0163 -40.210624,0.0163 -40.210686,0.0163 -40.210693,0.0164 -1.287609,18.7414 40.068842,-0.0146 40.068843,-0.0146 40.068837,-0.0147 56.77811,27.46589 c 7.50113,-1.1733 9.89446,-5.99101 7.233,-11.14183 l -25.72822,-16.2237 41.85485,-0.13042 40.06886,-0.0147 40.06884,-0.0146 40.06877,-0.0146 40.06897,-0.0147 40.0688,-0.0146 10.72503,9.18986 9.40331,-3.31096 -1.86922,-6.5451 21.80975,0.65117 40.06877,-0.0146 40.06895,-0.0147 40.06881,-0.0146 40.06886,-0.0146 40.06879,-0.0147 64.98892,-1.41602 c 30.25775,3.41035 46.45489,7.69493 71.84649,19.55944 3.36614,1.57294 10.16134,-2.59263 8.33546,-5.02437 0,0 -9.32226,-9.68949 -10.30922,-13.17516 -0.60746,-2.14533 138.84695,-0.83874 138.84695,-0.83874 14.904,0.56855 29.05302,4.09316 38.79935,5.43666 l 1.55963,-7.73748 c -4.05762,-2.30243 -18.47008,-3.06205 -13.83829,-5.79205 l 23.8097,-2.18718 z"
       id="path3794"
       inkscape:connector-curvature="0"
       sodipodi:nodetypes="csccccccccccccccccccscccccccccccccccccccccccccccccssssccccc"
       inkscape:export-xdpi="90"
       inkscape:export-ydpi="90" />
    <path
       style="fill:none;stroke:#000000;stroke-width:1.1424067;stroke-linecap:butt;stroke-linejoin:miter;stroke-miterlimit:4;stroke-opacity:1;stroke-dasharray:none"
       d="m 656.26456,134.66289 14.50202,1.37163 16.1786,1.72782"
       id="path3796"
       inkscape:connector-curvature="0"
       inkscape:export-filename="D:\Workspace\Hazelnut\productive_game_master\Slei\Hazelnut\Resources\SVG\path3794.png"
       inkscape:export-xdpi="90"
       inkscape:export-ydpi="90" />
    <path
       style="fill:none;stroke:#000000;stroke-width:1.07149363;stroke-linecap:butt;stroke-linejoin:miter;stroke-miterlimit:4;stroke-opacity:1;stroke-dasharray:none"
       d="m 686.86091,130.78574 9.02698,1.25743"
       id="path3798"
       inkscape:connector-curvature="0"
       sodipodi:nodetypes="cc"
       inkscape:export-filename="D:\Workspace\Hazelnut\productive_game_master\Slei\Hazelnut\Resources\SVG\path3794.png"
       inkscape:export-xdpi="90"
       inkscape:export-ydpi="90" />
    <path
       style="fill:none;stroke:#000000;stroke-width:1.1424067;stroke-linecap:butt;stroke-linejoin:miter;stroke-miterlimit:4;stroke-opacity:1;stroke-dasharray:none"
       d="m 704.03267,131.86435 c 0,0 19.97735,2.82639 22.2575,3.00532 7.35657,0.57728 22.59313,1.10006 25.37759,1.0808"
       id="path3800"
       inkscape:connector-curvature="0"
       sodipodi:nodetypes="csc"
       inkscape:export-filename="D:\Workspace\Hazelnut\productive_game_master\Slei\Hazelnut\Resources\SVG\path3794.png"
       inkscape:export-xdpi="90"
       inkscape:export-ydpi="90" />
    <path
       style="fill:none;stroke:#000000;stroke-width:1.1424067;stroke-linecap:butt;stroke-linejoin:miter;stroke-miterlimit:4;stroke-opacity:1;stroke-dasharray:none"
       d="m 758.40256,133.17562 c 0,0 7.9163,-0.53524 11.85406,-0.29757 4.27944,0.25841 12.58032,1.86056 12.58032,1.86056"
       id="path3802"
       inkscape:connector-curvature="0"
       sodipodi:nodetypes="cac"
       inkscape:export-filename="D:\Workspace\Hazelnut\productive_game_master\Slei\Hazelnut\Resources\SVG\path3794.png"
       inkscape:export-xdpi="90"
       inkscape:export-ydpi="90" />
    <path
       style="fill:none;stroke:#000000;stroke-width:1.1424067;stroke-linecap:butt;stroke-linejoin:miter;stroke-miterlimit:4;stroke-opacity:1;stroke-dasharray:none"
       d="m 806.65273,130.64103 c 0,0 19.93521,4.48215 30.32016,5.20215 9.78157,0.67797 27.34113,1.01856 29.47575,-0.8769 2.09901,-1.86384 -10.03778,-4.53191 -15.81617,-5.47331 -4.58081,-0.74628 -14.15424,-0.01 -14.15424,-0.01"
       id="path3804"
       inkscape:connector-curvature="0"
       sodipodi:nodetypes="casac"
       inkscape:export-filename="D:\Workspace\Hazelnut\productive_game_master\Slei\Hazelnut\Resources\SVG\path3794.png"
       inkscape:export-xdpi="90"
       inkscape:export-ydpi="90" />
    <path
       style="fill:none;stroke:#000000;stroke-width:1.1424067;stroke-linecap:butt;stroke-linejoin:miter;stroke-miterlimit:4;stroke-opacity:1;stroke-dasharray:none"
       d="m 886.78107,134.71786 c 3.34129,-0.0225 22.62509,0.62408 22.62509,0.62408"
       id="path3806"
       inkscape:connector-curvature="0"
       sodipodi:nodetypes="cc"
       inkscape:export-filename="D:\Workspace\Hazelnut\productive_game_master\Slei\Hazelnut\Resources\SVG\path3794.png"
       inkscape:export-xdpi="90"
       inkscape:export-ydpi="90" />
    <path
       style="fill:none;stroke:#000000;stroke-width:1.1424067;stroke-linecap:butt;stroke-linejoin:miter;stroke-miterlimit:4;stroke-opacity:1;stroke-dasharray:none"
       d="m 915.34842,136.5125 7.76003,-0.57402"
       id="path3808"
       inkscape:connector-curvature="0"
       sodipodi:nodetypes="cc"
       inkscape:export-filename="D:\Workspace\Hazelnut\productive_game_master\Slei\Hazelnut\Resources\SVG\path3794.png"
       inkscape:export-xdpi="90"
       inkscape:export-ydpi="90" />
    <path
       style="fill:none;stroke:#000000;stroke-width:1.1424067;stroke-linecap:butt;stroke-linejoin:miter;stroke-miterlimit:4;stroke-opacity:1;stroke-dasharray:none;display:inline"
       d="m 375.53053,133.663 8.9275,1.04209 16.17847,1.728"
       id="path3796-1"
       inkscape:connector-curvature="0"
       sodipodi:nodetypes="ccc"
       inkscape:export-filename="D:\Workspace\Hazelnut\productive_game_master\Slei\Hazelnut\Resources\SVG\path3794.png"
       inkscape:export-xdpi="90"
       inkscape:export-ydpi="90" />
    <path
       style="fill:none;stroke:#000000;stroke-width:1.1424067;stroke-linecap:butt;stroke-linejoin:miter;stroke-miterlimit:4;stroke-opacity:1;stroke-dasharray:none;display:inline"
       d="m 407.10766,133.33677 c 0,0 19.97733,2.82638 22.25756,3.00528 7.35631,0.57722 22.59316,1.1 25.37737,1.08077"
       id="path3800-7"
       inkscape:connector-curvature="0"
       sodipodi:nodetypes="csc"
       inkscape:export-filename="D:\Workspace\Hazelnut\productive_game_master\Slei\Hazelnut\Resources\SVG\path3794.png"
       inkscape:export-xdpi="90"
       inkscape:export-ydpi="90" />
    <path
       style="fill:none;stroke:#000000;stroke-width:1.1424067;stroke-linecap:butt;stroke-linejoin:miter;stroke-miterlimit:4;stroke-opacity:1;stroke-dasharray:none;display:inline"
       d="m 454.74828,131.75068 c 0,0 7.9163,-0.53532 11.854,-0.29752 4.27954,0.2583 12.58039,1.86069 12.58039,1.86069"
       id="path3802-4"
       inkscape:connector-curvature="0"
       sodipodi:nodetypes="cac"
       inkscape:export-filename="D:\Workspace\Hazelnut\productive_game_master\Slei\Hazelnut\Resources\SVG\path3794.png"
       inkscape:export-xdpi="90"
       inkscape:export-ydpi="90" />
    <path
       style="fill:none;stroke:#000000;stroke-width:1.1424067;stroke-linecap:butt;stroke-linejoin:miter;stroke-miterlimit:4;stroke-opacity:1;stroke-dasharray:none;display:inline"
       d="m 574.8419,137.6511 c 3.34111,-0.0225 22.62515,0.6241 22.62515,0.6241"
       id="path3806-0"
       inkscape:connector-curvature="0"
       sodipodi:nodetypes="cc"
       inkscape:export-filename="D:\Workspace\Hazelnut\productive_game_master\Slei\Hazelnut\Resources\SVG\path3794.png"
       inkscape:export-xdpi="90"
       inkscape:export-ydpi="90" />
    <path
       style="fill:none;stroke:#000000;stroke-width:1.1424067;stroke-linecap:butt;stroke-linejoin:miter;stroke-miterlimit:4;stroke-opacity:1;stroke-dasharray:none;display:inline"
       d="m 30.589664,134.52395 16.149382,-0.11181 14.531248,3.21125"
       id="path3796-1-9"
       inkscape:connector-curvature="0"
       sodipodi:nodetypes="ccc"
       inkscape:export-filename="D:\Workspace\Hazelnut\productive_game_master\Slei\Hazelnut\Resources\SVG\path3794.png"
       inkscape:export-xdpi="90"
       inkscape:export-ydpi="90" />
    <path
       style="fill:none;stroke:#000000;stroke-width:1.1424067;stroke-linecap:butt;stroke-linejoin:miter;stroke-miterlimit:4;stroke-opacity:1;stroke-dasharray:none;display:inline"
       d="m 65.426355,129.02343 c 0,0 25.061973,6.01341 27.321893,6.28209 7.919182,0.94141 22.593102,1.10005 25.377382,1.0808"
       id="path3800-7-4"
       inkscape:connector-curvature="0"
       sodipodi:nodetypes="csc"
       inkscape:export-filename="D:\Workspace\Hazelnut\productive_game_master\Slei\Hazelnut\Resources\SVG\path3794.png"
       inkscape:export-xdpi="90"
       inkscape:export-ydpi="90" />
    <path
       style="fill:none;stroke:#000000;stroke-width:1.1424067;stroke-linecap:butt;stroke-linejoin:miter;stroke-miterlimit:4;stroke-opacity:1;stroke-dasharray:none;display:inline"
       d="m 202.32468,136.75515 c 0,0 7.90221,-0.39081 11.854,-0.29753 11.31155,0.26705 33.75329,2.45001 33.75329,2.45001"
       id="path3802-4-8"
       inkscape:connector-curvature="0"
       sodipodi:nodetypes="cac"
       inkscape:export-filename="D:\Workspace\Hazelnut\productive_game_master\Slei\Hazelnut\Resources\SVG\path3794.png"
       inkscape:export-xdpi="90"
       inkscape:export-ydpi="90" />
    <path
       style="fill:none;stroke:#000000;stroke-width:1.1424067;stroke-linecap:butt;stroke-linejoin:miter;stroke-miterlimit:4;stroke-opacity:1;stroke-dasharray:none;display:inline"
       d="m 242.17886,131.58792 c 0,0 12.1156,-2.32763 18.34202,-2.33466 7.57239,-0.008 22.32165,2.78934 22.32165,2.78934"
       id="path3796-1-8"
       inkscape:connector-curvature="0"
       sodipodi:nodetypes="cac"
       inkscape:export-filename="D:\Workspace\Hazelnut\productive_game_master\Slei\Hazelnut\Resources\SVG\path3794.png"
       inkscape:export-xdpi="90"
       inkscape:export-ydpi="90" />
    <path
       style="fill:none;stroke:#000000;stroke-width:1.1424067;stroke-linecap:butt;stroke-linejoin:miter;stroke-miterlimit:4;stroke-opacity:1;stroke-dasharray:none;display:inline"
       d="m 303.29958,132.89722 c 0,0 23.88711,3.53531 26.16733,3.71418 7.35643,0.57728 22.59313,1.10004 25.37741,1.08076"
       id="path3800-7-2"
       inkscape:connector-curvature="0"
       sodipodi:nodetypes="csc"
       inkscape:export-filename="D:\Workspace\Hazelnut\productive_game_master\Slei\Hazelnut\Resources\SVG\path3794.png"
       inkscape:export-xdpi="90"
       inkscape:export-ydpi="90" />
    <path
       style="fill:none;stroke:#000000;stroke-width:1.1424067;stroke-linecap:butt;stroke-linejoin:miter;stroke-miterlimit:4;stroke-opacity:1;stroke-dasharray:none;display:inline"
       d="m 344.22858,129.51774 c 0,0 5.68232,-0.4351 8.51281,-0.27444 4.28148,0.24309 12.58028,1.86057 12.58028,1.86057"
       id="path3802-4-4"
       inkscape:connector-curvature="0"
       sodipodi:nodetypes="cac"
       inkscape:export-filename="D:\Workspace\Hazelnut\productive_game_master\Slei\Hazelnut\Resources\SVG\path3794.png"
       inkscape:export-xdpi="90"
       inkscape:export-ydpi="90" />
    <path
       style="fill:none;stroke:#000000;stroke-width:1.1424067;stroke-linecap:butt;stroke-linejoin:miter;stroke-miterlimit:4;stroke-opacity:1;stroke-dasharray:none;display:inline"
       d="m 505.44797,131.33908 c 0,0 19.9352,4.48233 30.32015,5.20213 9.7815,0.67802 27.34126,1.01869 29.47584,-0.87671 2.09888,-1.86399 -10.03795,-4.53203 -15.81619,-5.47345 -4.58094,-0.74631 -14.1543,-0.01 -14.1543,-0.01"
       id="path3804-5"
       inkscape:connector-curvature="0"
       sodipodi:nodetypes="casac"
       inkscape:export-filename="D:\Workspace\Hazelnut\productive_game_master\Slei\Hazelnut\Resources\SVG\path3794.png"
       inkscape:export-xdpi="90"
       inkscape:export-ydpi="90" />
    <path
       style="fill:none;stroke:#000000;stroke-width:1.1424067;stroke-linecap:butt;stroke-linejoin:miter;stroke-miterlimit:4;stroke-opacity:1;stroke-dasharray:none;display:inline"
       d="m 138.52544,137.55766 c 0,0 12.71681,1.32111 19.11852,1.2319 8.4122,-0.11727 17.28824,-2.02655 24.99744,-2.31768 12.27523,-0.4636 15.39373,-6.8654 -9.68463,-5.14783"
       id="path3804-51"
       inkscape:connector-curvature="0"
       sodipodi:nodetypes="casc"
       inkscape:export-filename="D:\Workspace\Hazelnut\productive_game_master\Slei\Hazelnut\Resources\SVG\path3794.png"
       inkscape:export-xdpi="90"
       inkscape:export-ydpi="90" />
    <path
       style="fill:none;stroke:#000000;stroke-width:1.1424067;stroke-linecap:butt;stroke-linejoin:miter;stroke-miterlimit:4;stroke-opacity:1;stroke-dasharray:none;display:inline"
       d="m 591.81999,129.48281 c 0,0 19.97738,2.82645 22.25758,3.00538 7.35654,0.57724 22.59313,1.10004 25.37755,1.08081"
       id="path3800-7-7"
       inkscape:connector-curvature="0"
       sodipodi:nodetypes="csc"
       inkscape:export-filename="D:\Workspace\Hazelnut\productive_game_master\Slei\Hazelnut\Resources\SVG\path3794.png"
       inkscape:export-xdpi="90"
       inkscape:export-ydpi="90" />
  </g>
</svg>
