<svg width="640" height="480" xmlns="http://www.w3.org/2000/svg">
 <!-- Created with SVG-edit - http://svg-edit.googlecode.com/ -->
 <g>
  <title>Ebene 1</title>
  <path fill="#ffffff" stroke="#000000" stroke-width="4" stroke-linejoin="null" stroke-linecap="null" d="m265,202l31,-36l29,29l-0.625,-17l16.375,1l9.375,14l10.375,-37l71.5,-24l10.5,48.25l47.5,40.25l-0.5,18.25l-30.5,12.25l35.25,8.5l18.25,32.5l20.25,-4.5l-18.75,14.5l-29.75,-7.875l34.25,45.125l-25.75,24.125l10.25,19.125l-30,9.81201l-26,-13.18701l-24,38.40601l-20,-29.59302l-79.375,-7.77399l-15.375,10.22699l-20.375,-3.77399l14.625,-21.77301l-21.375,-22.77399l1.625,-17.77301l3.15601,-15.69299l16.15601,-4.694l13.15698,-21.69299l-28.84399,-17.694l-22.375,-14.77301l0.5,-21.375l0.5,-26.375z" id="svg_4"/>
  <path fill="none" stroke="#000000" stroke-width="4" stroke-linejoin="null" stroke-linecap="null" d="m279,259l14,-56l14.75,11.5l30.75,11.5l-1.25,-18.5l40.75,11.5" id="svg_6"/>
  <line fill="none" stroke="#000000" stroke-width="5" stroke-linejoin="null" stroke-linecap="null" x1="1496" y1="1297" x2="1507" y2="1223" id="svg_7"/>
  <path fill="none" stroke="#000000" stroke-width="4" stroke-linejoin="null" stroke-linecap="null" d="m476.5,242l-84.625,-23.75l31.375,-45.75l6.75,-35.5" id="svg_8"/>
  <path fill="none" stroke="#000000" stroke-width="4" stroke-linejoin="null" stroke-linecap="null" d="m325,378l11,-44l28.75,-10.5l-16.25,-37.5l17.75,-24.5l16.1875,69.875l-20.8125,25.875l44.59375,-6.5625l23.79688,12.71875l-6.20313,52.71875" id="svg_9"/>
  <path fill="none" stroke="#000000" stroke-width="4" stroke-linejoin="null" stroke-linecap="null" d="m381.76575,347.4913l16.58337,-41.36322l-29.83841,-40.72131l50.70676,-22.60768l10.14087,35.8622l12.81335,-25.57776l-6.28116,-14.01045l13.42532,-40.40718l2.93967,56.06503l-24.54129,50.35074" id="svg_10" transform="rotate(-95, 410.383, 273.078)"/>
 </g>
</svg>