<svg width="640" height="480" xmlns="http://www.w3.org/2000/svg">
 <metadata id="metadata7">image/svg+xmlManzana09 de Diciembre de 2007Pedro ValenciaInkscapeapplemanzana</metadata>
 <g>
  <title>Layer 1</title>
  <path fill="black" fill-rule="evenodd" stroke="black" stroke-width="4" id="path2770" d="m246.935,54.5998c4.381,-15.8212 44.64499,-15.3329 55.672,-19.0557c0,0 -4.15399,83.4829 6.64801,125.2239c-16.69699,-0.93201 -18.28,-3.63 -18.28,-3.63c0,0 -24.92801,-90.7417 -44.04001,-102.5382l0,0l0,0z"/>
  <path fill="#ff0000" fill-rule="evenodd" stroke="black" stroke-width="4" stroke-linecap="round" stroke-linejoin="round" stroke-miterlimit="4" id="path2764" d="m303.979,162.274c-26.134,-19.03 -48.274,-22.36 -87.834,-21.946c-38.89301,0.407 -79.353,15.653 -95.65201,47.54199c-16.3,31.888 -20.431,64.233 -5.37099,112.591c15.06001,48.358 36.578,94.89401 77.81499,121.89801c41.755,27.34299 101.593,7.74899 117.85301,7.63098c65.87299,14.06201 86.992,15.491 123.69,-9.94598c35.866,-24.862 44.431,-46.09799 54.62997,-66.85901c15.09903,-30.73499 19.819,-84.46399 5.84802,-128.647c-13.755,-43.495 -27.422,-73.94699 -71.19901,-87.45999c-43.776,-13.513 -82.64999,-0.453 -119.78,25.196l0,0l0,0z"/>
 </g>
</svg>