<svg width="640" height="480" xmlns="http://www.w3.org/2000/svg">
 <g>
  <title>Layer 1</title>
  <g transform="rotate(-35, 295.855, 235.051)" id="svg_5">
   <path d="m317.00858,202.9801c2.74686,-8.53369 16.6178,-16.43134 20.72699,-13.45612c4.10916,2.97522 4.42667,10.05798 3.70041,11.10486c-0.72626,1.04688 -8.14038,-2.16754 -12.81866,1.69922c-4.67822,3.86676 -7.01831,7.1684 -7.01831,7.1684l-4.59042,-6.51636z" id="path3239" stroke-miterlimit="4" stroke-width="4" stroke="#000000" fill-rule="evenodd" fill="#502d16"/>
   <path transform="rotate(-10, 289.463, 237.697)" d="m318.19156,207.55524c-13.93802,-13.94501 -38.75302,-14.659 -53.509,-1.54199c-10.39398,9.10199 -14.53702,23.09399 -15.89301,36.34399c-0.961,9.556 -0.39099,19.798 4.51099,28.311c4.91504,6.32199 13.48401,7.655 21.00702,8.03198c14.98801,0.668 30.82898,-2.94699 42.81702,-12.43698c14.43799,-12.39102 17.79999,-35.46402 7.19998,-51.271c-1.72699,-2.70502 -3.81699,-5.194 -6.133,-7.43701l0,0z" id="path2383" stroke-miterlimit="4" stroke-linejoin="round" stroke-linecap="round" stroke-width="4" stroke="#000000" fill-rule="nonzero" fill="#a05a2c"/>
   <path transform="rotate(-10, 298.979, 223.707)" d="m319.47159,202.23026c-13.68558,-13.5506 -36.37799,-17.05603 -52.33893,-6.88202c-3.61197,1.9856 -2.51328,6.97815 -2.48151,6.89545c6.03223,-4.76648 12.28058,0.4812 20.49744,6.37469c10.04956,7.20795 21.0957,18.26349 29.20633,29.01617c5.67566,7.5246 9.74127,14.91406 6.48788,20.07947c0.16742,0.052 4.89401,1.38409 7.0499,-3.01599c10.88141,-20.51611 4.73001,-40.21796 -8.42111,-52.46777z" id="path3201" stroke-miterlimit="4" stroke-linejoin="round" stroke-linecap="round" stroke-width="4" stroke="#000000" fill-rule="nonzero" fill="#502d16"/>
  </g>
 </g>
</svg>